<?xml version="1.0" standalone="no"?>
<!DOCTYPE svg PUBLIC "-//W3C//DTD SVG 1.1//EN" "http://www.w3.org/Graphics/SVG/1.1/DTD/svg11.dtd" >
<svg xmlns="http://www.w3.org/2000/svg" xmlns:xlink="http://www.w3.org/1999/xlink" version="1.1">
<metadata>
Created by FontForge 20150824 at Tue Dec 15 02:02:26 2015
 By Everything Fonts
Copyright (c) 2000 The Hoefler Type Foundry, Inc., dba Hoefler &#38; Frere-Jones. All Rights Reserved.
</metadata>
<defs>
<font id="GothaProLig" horiz-adv-x="500" >
  <font-face 
    font-family="GothaProLig"
    font-weight="400"
    font-stretch="normal"
    units-per-em="1000"
    panose-1="2 0 5 3 3 0 0 2 0 4"
    ascent="800"
    descent="-200"
    x-height="510"
    cap-height="700"
    bbox="-67 -214 1145 898"
    underline-thickness="20"
    underline-position="-153"
    unicode-range="U+0020-FB04"
  />
<missing-glyph 
d="M0 0v700h500v-700h-500zM81 49h339l-170 255zM49 96l171 254l-171 254v-508zM450 96v508l-171 -254zM250 395l170 255h-339z" />
    <glyph glyph-name="fi" unicode="fi" horiz-adv-x="611" 
d="M123 0v465h-74v45h74v50q0 88 45 133q40 40 107 40q41 0 76 -12v-46q-42 13 -76 13q-103 0 -103 -129v-49h178v-45h-178v-465h-49zM462 0v510h49v-510h-49zM456 643v67h61v-67h-61z" />
    <glyph glyph-name="fl" unicode="fl" horiz-adv-x="611" 
d="M123 0v465h-74v45h74v50q0 88 45 133q40 40 107 40q41 0 76 -12v-46q-42 13 -76 13q-103 0 -103 -129v-49h178v-45h-178v-465h-49zM462 0v730h49v-730h-49z" />
    <glyph glyph-name="ffi" unicode="ffi" horiz-adv-x="973" 
d="M123 0v465h-74v45h74v50q0 88 45 133q40 40 107 40q41 0 76 -12v-46q-42 13 -76 13q-103 0 -103 -129v-49h178v-45h-178v-465h-49zM485 0v465h-74v45h74v50q0 88 45 133q40 40 107 40q41 0 76 -12v-46q-42 13 -76 13q-103 0 -103 -129v-49h178v-45h-178v-465h-49zM824 0
v510h49v-510h-49zM818 643v67h61v-67h-61z" />
    <glyph glyph-name="ffl" unicode="ffl" horiz-adv-x="973" 
d="M123 0v465h-74v45h74v50q0 88 45 133q40 40 107 40q41 0 76 -12v-46q-42 13 -76 13q-103 0 -103 -129v-49h178v-45h-178v-465h-49zM485 0v465h-74v45h74v50q0 88 45 133q40 40 107 40q41 0 76 -12v-46q-42 13 -76 13q-103 0 -103 -129v-49h178v-45h-178v-465h-49zM824 0
v730h49v-730h-49z" />
    <glyph glyph-name=".notdef" 
d="M0 0v700h500v-700h-500zM81 49h339l-170 255zM49 96l171 254l-171 254v-508zM450 96v508l-171 -254zM250 395l170 255h-339z" />
    <glyph glyph-name=".null" horiz-adv-x="0" 
 />
    <glyph glyph-name="nonmarkingreturn" horiz-adv-x="333" 
 />
    <glyph glyph-name="space" unicode=" " horiz-adv-x="300" 
 />
    <glyph glyph-name="exclam" unicode="!" horiz-adv-x="252" 
d="M93 0v85h66v-85h-66zM112 183l-15 447v70h58v-70l-15 -447h-28z" />
    <glyph glyph-name="quotedbl" unicode="&#x22;" horiz-adv-x="410" 
d="M68 446l35 254h65v-5l-71 -249h-29zM248 446l35 254h65v-5l-71 -249h-29z" />
    <glyph glyph-name="numbersign" unicode="#" horiz-adv-x="700" 
d="M138 0l32 187h-121v47h129l41 236h-130v47h138l31 183h48l-31 -183h207l31 183h48l-31 -183h120v-47h-128l-41 -236h129v-47h-137l-32 -187h-48l32 187h-207l-32 -187h-48zM226 234h207l41 236h-207z" />
    <glyph glyph-name="dollar" unicode="$" horiz-adv-x="632" 
d="M297 -98v99q-129 11 -237 107l33 39q97 -91 206 -100v284q-113 25 -162.5 69t-49.5 120q0 75 59.5 126.5t150.5 53.5v58h48v-60q102 -8 193 -82l-33 -39q-74 65 -162 76v-281q114 -24 165 -69t51 -119q0 -78 -59.5 -129t-154.5 -55v-98h-48zM343 45q74 2 119.5 40.5
t45.5 96.5q0 54 -35 85.5t-130 53.5v-276zM299 382v273q-72 -1 -116.5 -39t-44.5 -94q0 -52 34 -84.5t127 -55.5z" />
    <glyph glyph-name="percent" unicode="%" horiz-adv-x="824" 
d="M128 0l514 700h54l-514 -700h-54zM614 -8q-67 0 -110 52.5t-43 126.5q0 73 43.5 126t111.5 53q67 0 110 -53t43 -126t-43.5 -126t-111.5 -53zM616 35q44 0 72.5 39t28.5 97t-30 97t-73 39q-44 0 -72.5 -39.5t-28.5 -96.5q0 -58 30 -97t73 -39zM208 350q-67 0 -110 52.5
t-43 126.5q0 73 43.5 126t111.5 53q67 0 110 -53t43 -126t-43.5 -126t-111.5 -53zM210 393q44 0 72.5 39t28.5 97t-30 97t-73 39q-44 0 -72.5 -39.5t-28.5 -96.5q0 -58 30 -97t73 -39z" />
    <glyph glyph-name="ampersand" unicode="&#x26;" horiz-adv-x="696" 
d="M622 -14l-121 125q-104 -121 -237 -121q-93 0 -154 55t-61 141q0 138 181 205q-42 46 -60 82.5t-18 79.5q0 68 49.5 113.5t125.5 45.5q68 0 114.5 -44.5t46.5 -109.5q0 -122 -172 -181l184 -189q48 67 91 170l47 -19q-51 -115 -104 -186l129 -133zM265 35q109 0 203 110
l-207 214q-80 -28 -120 -73t-40 -100q0 -64 46.5 -107.5t117.5 -43.5zM285 409q151 48 151 149q0 47 -32 78.5t-79 31.5q-53 0 -87 -33t-34 -82q0 -33 17.5 -64t63.5 -80z" />
    <glyph glyph-name="quotesingle" unicode="'" horiz-adv-x="230" 
d="M68 446l35 254h65v-5l-71 -249h-29z" />
    <glyph glyph-name="parenleft" unicode="(" horiz-adv-x="430" 
d="M348 -141q-134 76 -205.5 185t-71.5 243t71.5 243t205.5 185l21 -33q-246 -151 -246 -395t246 -395z" />
    <glyph glyph-name="parenright" unicode=")" horiz-adv-x="430" 
d="M82 -141l-21 33q246 151 246 395t-246 395l21 33q134 -76 205.5 -185t71.5 -243t-71.5 -243t-205.5 -185z" />
    <glyph glyph-name="asterisk" unicode="*" horiz-adv-x="430" 
d="M194 406l9 127l-106 -72l-22 37l118 56l-118 56l22 37l106 -72l-9 127h42l-9 -127l106 72l22 -37l-118 -56l118 -56l-22 -37l-106 72l9 -127h-42z" />
    <glyph glyph-name="plus" unicode="+" horiz-adv-x="640" 
d="M295 113v215h-217v48h217v215h50v-215h217v-48h-217v-215h-50z" />
    <glyph glyph-name="comma" unicode="," horiz-adv-x="230" 
d="M65 -107l-12 25q56 28 56 73v9h-27v85h66v-74q0 -47 -19 -74t-64 -44z" />
    <glyph glyph-name="hyphen" unicode="-" horiz-adv-x="408" 
d="M70 269v56h268v-56h-268z" />
    <glyph glyph-name="period" unicode="." horiz-adv-x="230" 
d="M82 0v85h66v-85h-66z" />
    <glyph glyph-name="slash" unicode="/" 
d="M-18 -128l472 926h49l-472 -926h-49z" />
    <glyph glyph-name="zero" unicode="0" horiz-adv-x="710" 
d="M354 -12q-130 0 -209.5 105.5t-79.5 256.5q0 97 35 179t102.5 132.5t153.5 50.5q130 0 209.5 -105.5t79.5 -256.5q0 -97 -35 -179t-102.5 -132.5t-153.5 -50.5zM356 35q105 0 170 93.5t65 221.5t-66 221.5t-171 93.5t-170 -93t-65 -222q0 -127 66 -221t171 -94z" />
    <glyph glyph-name="one" unicode="1" horiz-adv-x="335" 
d="M179 0v651l-135 -46l-14 41l160 59h40v-705h-51z" />
    <glyph glyph-name="two" unicode="2" horiz-adv-x="590" 
d="M48 0v39l261 236q87 79 121 131.5t34 107.5q0 66 -46.5 108t-111.5 42q-64 0 -111.5 -32t-93.5 -98l-39 26q50 76 106 113t143 37q89 0 148.5 -55.5t59.5 -138.5q0 -69 -38.5 -126t-136.5 -146l-214 -194h396v-50h-478z" />
    <glyph glyph-name="three" unicode="3" horiz-adv-x="610" 
d="M311 -12q-160 0 -257 126l40 33q88 -112 218 -112q73 0 123 44t50 113q0 72 -60.5 112t-157.5 40h-38l-13 29l241 278h-367v49h438v-37l-237 -271q47 -3 88.5 -15.5t78.5 -35t59 -61t22 -88.5q0 -89 -67.5 -146.5t-160.5 -57.5z" />
    <glyph glyph-name="four" unicode="4" horiz-adv-x="664" 
d="M445 0v171h-379l-18 39l400 495h47v-489h114v-45h-114v-171h-50zM111 216h334v414z" />
    <glyph glyph-name="five" unicode="5" horiz-adv-x="605" 
d="M302 -12q-68 0 -132 31.5t-113 81.5l37 37q103 -103 210 -103q82 0 135 51t53 127q0 73 -53.5 119.5t-138.5 46.5q-77 0 -158 -44l-40 26l20 339h393v-50h-347l-17 -262q78 38 155 38q103 0 171.5 -59.5t68.5 -153.5q0 -99 -69 -162t-175 -63z" />
    <glyph glyph-name="six" unicode="6" horiz-adv-x="642" 
d="M331 -12q-108 0 -178 70q-46 46 -67.5 108t-21.5 167q0 162 78.5 270.5t206.5 108.5q103 0 202 -81l-33 -40q-83 74 -173 74q-103 0 -166 -96t-63 -250v-17q76 130 219 130q98 0 169.5 -60.5t71.5 -153.5q0 -99 -70.5 -164.5t-174.5 -65.5zM335 35q83 0 135 53t52 130
q0 72 -53.5 120t-136.5 48t-139 -53t-56 -122q0 -75 56.5 -125.5t141.5 -50.5z" />
    <glyph glyph-name="seven" unicode="7" horiz-adv-x="587" 
d="M156 0l318 650h-406v50h464v-38l-319 -662h-57z" />
    <glyph glyph-name="eight" unicode="8" horiz-adv-x="630" 
d="M315 -10q-112 0 -186 55.5t-74 143.5q0 59 43 104.5t112 68.5q-131 53 -131 165q0 79 71 131t165 52t165 -52t71 -133q0 -110 -131 -163q69 -23 112 -68.5t43 -106.5q0 -86 -74.5 -141.5t-185.5 -55.5zM315 37q94 0 150 43.5t56 106.5q0 65 -60 107.5t-146 42.5
q-87 0 -146.5 -43t-59.5 -109q0 -62 56 -105t150 -43zM315 381q76 0 129 40.5t53 105.5q0 59 -52.5 97.5t-129.5 38.5t-129.5 -39t-52.5 -99q0 -63 53 -103.5t129 -40.5z" />
    <glyph glyph-name="nine" unicode="9" horiz-adv-x="642" 
d="M293 -12q-108 0 -211 87l33 40q89 -80 179 -80q102 0 167 94.5t65 242.5v24q-75 -135 -218 -135q-105 0 -173.5 62t-68.5 154q0 99 69 167t177 68q107 0 178 -71q88 -88 88 -275q0 -164 -81 -271t-204 -107zM310 307q86 0 140.5 54.5t54.5 125.5q0 75 -56.5 126.5
t-142.5 51.5q-83 0 -134.5 -55.5t-51.5 -132.5q0 -74 53.5 -122t136.5 -48z" />
    <glyph glyph-name="colon" unicode=":" horiz-adv-x="240" 
d="M87 0v85h66v-85h-66zM87 425v85h66v-85h-66z" />
    <glyph glyph-name="semicolon" unicode=";" horiz-adv-x="240" 
d="M70 -107l-12 25q56 28 56 73v9h-27v85h66v-74q0 -47 -19 -74t-64 -44zM87 425v85h66v-85h-66z" />
    <glyph glyph-name="less" unicode="&#x3c;" horiz-adv-x="640" 
d="M537 91l-464 241v40l464 241v-54l-403 -206l403 -208v-54z" />
    <glyph glyph-name="equal" unicode="=" horiz-adv-x="640" 
d="M93 214v51h454v-51h-454zM93 439v51h454v-51h-454z" />
    <glyph glyph-name="greater" unicode="&#x3e;" horiz-adv-x="640" 
d="M103 91v54l403 206l-403 208v54l464 -241v-40z" />
    <glyph glyph-name="question" unicode="?" horiz-adv-x="534" 
d="M212 0v85h66v-85h-66zM229 183l-13 162l5 5q99 2 153.5 45t54.5 117q0 63 -46 107t-120 44q-109 0 -193 -103l-36 30q46 58 101 88.5t130 30.5q97 0 157 -56.5t60 -140.5q0 -88 -59.5 -140.5t-152.5 -63.5l-9 -125h-32z" />
    <glyph glyph-name="at" unicode="@" horiz-adv-x="980" 
d="M499 -162q-190 0 -318 127.5t-128 308.5q0 180 127.5 309t310.5 129q182 0 309 -118t127 -278q0 -119 -55 -181t-127 -62q-52 0 -87.5 25t-48.5 68q-75 -93 -171 -93q-74 0 -125.5 50t-51.5 128q0 103 72.5 176t160.5 73q102 0 149 -89l14 75l48 -6l-37 -211
q-9 -52 -9 -72q0 -43 23.5 -65.5t66.5 -22.5q58 0 101 53t43 154q0 91 -51.5 174.5t-145.5 136.5t-205 53q-172 0 -288 -118.5t-116 -287.5q0 -170 116.5 -287t295.5 -117q134 0 250 68l15 -25q-123 -75 -265 -75zM446 120q70 0 125 59.5t55 133.5q0 59 -37.5 99t-94.5 40
q-70 0 -125.5 -57.5t-55.5 -139.5q0 -63 36.5 -99t96.5 -36z" />
    <glyph glyph-name="A" unicode="A" horiz-adv-x="790" 
d="M44 0l326 705h50l326 -705h-57l-89 196h-413l-89 -196h-54zM209 243h369l-184 405z" />
    <glyph glyph-name="B" unicode="B" horiz-adv-x="722" 
d="M104 0v700h289q103 0 165 -47.5t62 -126.5q0 -118 -119 -166q158 -41 158 -169q0 -87 -68.5 -139t-182.5 -52h-304zM156 48h254q90 0 143 39t53 106q0 65 -55 100.5t-158 35.5h-237v-281zM156 377h231q81 0 130.5 38t49.5 108q0 59 -46 94t-129 35h-236v-275z" />
    <glyph glyph-name="C" unicode="C" horiz-adv-x="738" 
d="M421 -12q-149 0 -248.5 104.5t-99.5 257.5q0 150 100 256t250 106q86 0 146.5 -29t122.5 -86l-34 -35q-106 103 -236 103q-126 0 -210.5 -90.5t-84.5 -224.5q0 -133 85.5 -224t210.5 -91q73 0 129 27t112 82l35 -34q-61 -60 -126 -91t-152 -31z" />
    <glyph glyph-name="D" unicode="D" horiz-adv-x="782" 
d="M104 0v700h233q164 0 268 -99.5t104 -250.5q0 -150 -104.5 -250t-267.5 -100h-233zM156 48h181q143 0 230.5 86t87.5 216q0 128 -87.5 215t-230.5 87h-181v-604z" />
    <glyph glyph-name="E" unicode="E" horiz-adv-x="670" 
d="M104 0v700h498v-48h-446v-275h401v-48h-401v-281h451v-48h-503z" />
    <glyph glyph-name="F" unicode="F" horiz-adv-x="656" 
d="M104 0v700h493v-48h-441v-287h396v-48h-396v-317h-52z" />
    <glyph glyph-name="G" unicode="G" horiz-adv-x="784" 
d="M425 -12q-161 0 -256.5 104t-95.5 258q0 147 97 254.5t249 107.5q81 0 140.5 -23t115.5 -69l-34 -39q-96 84 -225 84q-125 0 -207 -92t-82 -223q0 -139 81 -227.5t219 -88.5q63 0 122.5 22.5t100.5 57.5v201h-234v48h284v-270q-52 -46 -123.5 -75.5t-151.5 -29.5z" />
    <glyph glyph-name="H" unicode="H" horiz-adv-x="760" 
d="M104 0v700h52v-324h448v324h52v-700h-52v328h-448v-328h-52z" />
    <glyph glyph-name="I" unicode="I" horiz-adv-x="274" 
d="M111 0v700h52v-700h-52z" />
    <glyph glyph-name="J" unicode="J" horiz-adv-x="549" 
d="M249 -10q-139 0 -212 131l43 27q34 -57 73.5 -84t98.5 -27q67 0 109.5 49t42.5 138v476h52v-472q0 -118 -64 -182q-56 -56 -143 -56z" />
    <glyph glyph-name="K" unicode="K" horiz-adv-x="715" 
d="M104 0v700h52v-460l446 460h71l-306 -309l319 -391h-68l-288 354l-174 -176v-178h-52z" />
    <glyph glyph-name="L" unicode="L" horiz-adv-x="619" 
d="M104 0v700h52v-652h411v-48h-463z" />
    <glyph glyph-name="M" unicode="M" horiz-adv-x="868" 
d="M104 0v700h49l281 -414l281 414h49v-700h-52v608l-277 -403h-4l-277 403v-608h-50z" />
    <glyph glyph-name="N" unicode="N" horiz-adv-x="790" 
d="M104 0v700h49l483 -609v609h50v-700h-39l-493 622v-622h-50z" />
    <glyph glyph-name="O" unicode="O" horiz-adv-x="850" 
d="M424 -12q-155 0 -253 106.5t-98 255.5q0 148 99 255t254 107t253 -106.5t98 -255.5q0 -148 -99 -255t-254 -107zM426 35q128 0 212.5 91t84.5 224q0 131 -85.5 223t-213.5 92t-212.5 -91t-84.5 -224q0 -131 85.5 -223t213.5 -92z" />
    <glyph glyph-name="P" unicode="P" horiz-adv-x="668" 
d="M104 0v700h254q117 0 188.5 -57.5t71.5 -158.5q0 -106 -78.5 -164.5t-194.5 -58.5h-189v-261h-52zM156 309h192q98 0 158 47.5t60 126.5q0 81 -57.5 125t-154.5 44h-198v-343z" />
    <glyph glyph-name="Q" unicode="Q" horiz-adv-x="850" 
d="M748 -21l-98 89q-94 -80 -226 -80q-155 0 -253 106.5t-98 255.5q0 148 99 255t254 107t253 -106.5t98 -255.5q0 -144 -92 -247l100 -84zM426 35q107 0 186 66l-136 116l37 41l134 -122q76 89 76 214q0 131 -85.5 223t-213.5 92t-212.5 -91t-84.5 -224q0 -131 85.5 -223
t213.5 -92z" />
    <glyph glyph-name="R" unicode="R" horiz-adv-x="723" 
d="M104 0v700h294q128 0 197 -69q53 -53 53 -132q0 -85 -56 -136t-149 -64l231 -299h-66l-223 290h-229v-290h-52zM156 337h236q90 0 147 43.5t57 118.5q0 71 -53 112t-148 41h-239v-315z" />
    <glyph glyph-name="S" unicode="S" horiz-adv-x="640" 
d="M341 -10q-157 0 -282 112l34 39q59 -55 117 -79.5t134 -24.5q78 0 127.5 39.5t49.5 101.5q0 58 -41.5 92t-156.5 57q-126 26 -181 72t-55 127q0 78 64 131t161 53q74 0 129.5 -20.5t110.5 -64.5l-33 -41q-91 79 -209 79q-76 0 -123.5 -38.5t-47.5 -95.5q0 -59 42.5 -94
t161.5 -59q121 -25 175.5 -71t54.5 -124q0 -84 -65 -137.5t-167 -53.5z" />
    <glyph glyph-name="T" unicode="T" horiz-adv-x="648" 
d="M298 0v652h-244v48h540v-48h-244v-652h-52z" />
    <glyph glyph-name="U" unicode="U" horiz-adv-x="760" 
d="M380 -11q-129 0 -208 79t-79 223v409h52v-404q0 -123 63 -191.5t174 -68.5q109 0 171 65.5t62 189.5v409h52v-403q0 -147 -78 -227.5t-209 -80.5z" />
    <glyph glyph-name="V" unicode="V" horiz-adv-x="750" 
d="M352 -5l-308 705h58l274 -644l275 644h55l-308 -705h-46z" />
    <glyph glyph-name="W" unicode="W" horiz-adv-x="1102" 
d="M304 -5l-254 705h58l220 -623l205 625h40l205 -625l220 623h54l-254 -705h-42l-205 608l-205 -608h-42z" />
    <glyph glyph-name="X" unicode="X" horiz-adv-x="722" 
d="M51 0l279 357l-269 343h62l239 -308l238 308h61l-268 -342l278 -358h-62l-249 323l-248 -323h-61z" />
    <glyph glyph-name="Y" unicode="Y" horiz-adv-x="716" 
d="M332 0v277l-300 423h65l262 -376l263 376h62l-300 -422v-278h-52z" />
    <glyph glyph-name="Z" unicode="Z" horiz-adv-x="688" 
d="M68 0v29l479 624h-462v47h536v-29l-479 -624h479v-47h-553z" />
    <glyph glyph-name="bracketleft" unicode="[" horiz-adv-x="430" 
d="M98 -130v830h273v-38h-227v-754h227v-38h-273z" />
    <glyph glyph-name="backslash" unicode="\" 
d="M469 -128l-472 926h49l472 -926h-49z" />
    <glyph glyph-name="bracketright" unicode="]" horiz-adv-x="430" 
d="M59 -130v38h227v754h-227v38h273v-830h-273z" />
    <glyph glyph-name="asciicircum" unicode="^" 
d="M70 493l158 210h44l158 -210h-53l-128 167l-128 -167h-51z" />
    <glyph glyph-name="underscore" unicode="_" horiz-adv-x="600" 
d="M-2 -160v44h604v-44h-604z" />
    <glyph glyph-name="grave" unicode="`" 
d="M264 595l-107 103l61 30l88 -133h-42z" />
    <glyph glyph-name="a" unicode="a" horiz-adv-x="574" 
d="M248 -12q-78 0 -137.5 43t-59.5 119q0 78 61 122t162 44q86 0 169 -22v22q0 76 -44 116t-124 40t-160 -41l-18 43q95 44 181 44q105 0 161 -56q52 -52 52 -144v-318h-48v85q-69 -97 -195 -97zM251 34q80 0 136.5 44.5t56.5 112.5v58q-90 23 -173 23q-80 0 -124 -32.5
t-44 -88.5q0 -53 43.5 -85t104.5 -32z" />
    <glyph glyph-name="b" unicode="b" horiz-adv-x="660" 
d="M352 -12q-130 0 -210 122v-110h-49v730h49v-334q83 126 210 126q98 0 173 -73.5t75 -193.5q0 -119 -75 -193t-173 -74zM347 35q86 0 143 59.5t57 160.5q0 98 -58.5 159t-141.5 61t-145.5 -62.5t-62.5 -158.5q0 -95 62.5 -157t145.5 -62z" />
    <glyph glyph-name="c" unicode="c" horiz-adv-x="571" 
d="M318 -12q-110 0 -185 78t-75 189q0 110 75.5 188.5t184.5 78.5q119 0 203 -95l-34 -35q-82 84 -170 84q-85 0 -145.5 -65t-60.5 -156q0 -92 61 -156.5t149 -64.5q91 0 169 87l36 -32q-89 -101 -208 -101z" />
    <glyph glyph-name="d" unicode="d" horiz-adv-x="660" 
d="M308 -12q-98 0 -173 73.5t-75 193.5q0 119 75 193t173 74q130 0 210 -122v330h49v-730h-49v114q-83 -126 -210 -126zM313 35q83 0 145.5 62.5t62.5 158.5q0 95 -62.5 157t-145.5 62q-86 0 -143 -59.5t-57 -160.5q0 -98 58.5 -159t141.5 -61z" />
    <glyph glyph-name="e" unicode="e" horiz-adv-x="584" 
d="M308 -12q-103 0 -176.5 75t-73.5 193q0 112 69.5 189t172.5 77q105 0 169.5 -76t64.5 -191q0 -12 -1 -20h-423q7 -92 64.5 -146.5t135.5 -54.5q100 0 175 80l34 -30q-89 -96 -211 -96zM110 279h371q-6 84 -53 141t-130 57q-75 0 -128 -56.5t-60 -141.5z" />
    <glyph glyph-name="f" unicode="f" horiz-adv-x="362" 
d="M123 0v465h-74v45h74v50q0 88 45 133q40 40 107 40q41 0 76 -12v-46q-42 13 -76 13q-103 0 -103 -129v-49h178v-45h-178v-465h-49z" />
    <glyph glyph-name="g" unicode="g" horiz-adv-x="660" 
d="M317 -162q-129 0 -234 78l29 40q93 -72 206 -72q91 0 145.5 51t54.5 147v74q-82 -118 -213 -118q-97 0 -171 67.5t-74 174.5q0 106 74 174t171 68q133 0 213 -114v102h49v-431q0 -108 -65 -173q-68 -68 -185 -68zM310 85q83 0 147 55.5t64 140.5t-63.5 139.5t-147.5 54.5
q-83 0 -140 -53.5t-57 -141.5q0 -84 58 -139.5t139 -55.5z" />
    <glyph glyph-name="h" unicode="h" horiz-adv-x="613" 
d="M93 0v730h49v-315q61 107 184 107q95 0 149.5 -58.5t54.5 -151.5v-312h-49v303q0 80 -43 127t-119 47t-126.5 -51.5t-50.5 -130.5v-295h-49z" />
    <glyph glyph-name="i" unicode="i" horiz-adv-x="249" 
d="M100 0v510h49v-510h-49zM94 643v67h61v-67h-61z" />
    <glyph glyph-name="j" unicode="j" horiz-adv-x="249" 
d="M40 -163q-21 0 -41 4v43q18 -3 40 -3q28 0 44.5 18t16.5 53v558h49v-555q0 -58 -29 -88t-80 -30zM94 643v67h61v-67h-61z" />
    <glyph glyph-name="k" unicode="k" horiz-adv-x="560" 
d="M93 0v730h49v-547l316 327h65l-223 -226l230 -284h-62l-202 249l-124 -125v-124h-49z" />
    <glyph glyph-name="l" unicode="l" horiz-adv-x="249" 
d="M100 0v730h49v-730h-49z" />
    <glyph glyph-name="m" unicode="m" horiz-adv-x="951" 
d="M93 0v510h49v-91q30 48 69 75.5t101 27.5q120 0 172 -110q64 110 184 110q90 0 143 -58t53 -155v-309h-49v303q0 82 -40 128t-111 46q-67 0 -114 -49t-47 -131v-297h-49v306q0 79 -40.5 125t-108.5 46t-115.5 -53t-47.5 -130v-294h-49z" />
    <glyph glyph-name="n" unicode="n" horiz-adv-x="613" 
d="M93 0v510h49v-95q61 107 184 107q95 0 149.5 -58.5t54.5 -151.5v-312h-49v303q0 80 -43 127t-119 47t-126.5 -51.5t-50.5 -130.5v-295h-49z" />
    <glyph glyph-name="o" unicode="o" horiz-adv-x="640" 
d="M319 -12q-112 0 -186.5 78.5t-74.5 188.5q0 109 75.5 188t187.5 79t186.5 -78.5t74.5 -188.5q0 -109 -75.5 -188t-187.5 -79zM321 34q85 0 146.5 65t61.5 156q0 92 -61.5 156.5t-148.5 64.5q-86 0 -147 -64.5t-61 -156.5t61 -156.5t149 -64.5z" />
    <glyph glyph-name="p" unicode="p" horiz-adv-x="660" 
d="M93 -160v670h49v-114q83 126 210 126q98 0 173 -73.5t75 -193.5q0 -119 -75 -193t-173 -74q-130 0 -210 122v-270h-49zM347 35q86 0 143 59.5t57 160.5q0 98 -58.5 159t-141.5 61t-145.5 -62.5t-62.5 -158.5q0 -95 62.5 -157t145.5 -62z" />
    <glyph glyph-name="q" unicode="q" horiz-adv-x="660" 
d="M518 -160v274q-83 -126 -210 -126q-98 0 -173 73.5t-75 193.5q0 119 75 193t173 74q130 0 210 -122v110h49v-670h-49zM313 35q83 0 145.5 62.5t62.5 158.5q0 95 -62.5 157t-145.5 62q-86 0 -143 -59.5t-57 -160.5q0 -98 58.5 -159t141.5 -61z" />
    <glyph glyph-name="r" unicode="r" horiz-adv-x="400" 
d="M93 0v510h49v-145q31 70 91.5 113t134.5 40v-54h-5q-93 0 -157 -68t-64 -187v-209h-49z" />
    <glyph glyph-name="s" unicode="s" horiz-adv-x="497" 
d="M258 -10q-55 0 -111.5 20.5t-97.5 53.5l29 39q87 -67 183 -67q53 0 88 27t35 72q0 41 -34.5 62t-100.5 40q-35 10 -51 15t-45 18t-42.5 26t-25 34.5t-11.5 48.5q0 62 47 101.5t121 39.5q97 0 181 -56l-26 -41q-77 51 -157 51q-52 0 -84 -25.5t-32 -65.5q0 -16 8.5 -30
t20 -23t33 -18.5t37 -14.5t43.5 -13q38 -11 62 -20t51.5 -26t41 -41.5t13.5 -57.5q0 -67 -50.5 -108t-125.5 -41z" />
    <glyph glyph-name="t" unicode="t" horiz-adv-x="400" 
d="M263 -9q-63 0 -103 35.5t-40 104.5v334h-74v45h74v163h49v-163h179v-45h-179v-329q0 -99 102 -99q35 0 75 18v-46q-39 -18 -83 -18z" />
    <glyph glyph-name="u" unicode="u" horiz-adv-x="613" 
d="M287 -12q-95 0 -149.5 58.5t-54.5 151.5v312h49v-303q0 -80 43 -127t119 -47t126.5 51.5t50.5 130.5v295h49v-510h-49v95q-61 -107 -184 -107z" />
    <glyph glyph-name="v" unicode="v" horiz-adv-x="582" 
d="M270 -4l-229 514h57l193 -455l195 455h55l-229 -514h-42z" />
    <glyph glyph-name="w" unicode="w" horiz-adv-x="861" 
d="M236 -4l-187 514h55l154 -448l154 450h39l154 -450l154 448h53l-187 -514h-42l-152 437l-153 -437h-42z" />
    <glyph glyph-name="x" unicode="x" horiz-adv-x="570" 
d="M45 0l209 260l-201 250h61l172 -216l172 216h59l-201 -249l209 -261h-61l-180 227l-180 -227h-59z" />
    <glyph glyph-name="y" unicode="y" horiz-adv-x="588" 
d="M155 -163q-51 0 -101 22l17 43q39 -19 87 -19q40 0 69 27t57 93l-245 507h57l212 -456l184 456h54l-221 -528q-33 -78 -73.5 -111.5t-96.5 -33.5z" />
    <glyph glyph-name="z" unicode="z" horiz-adv-x="554" 
d="M58 0v28l368 438h-354v44h427v-28l-368 -438h368v-44h-441z" />
    <glyph glyph-name="braceleft" unicode="{" horiz-adv-x="480" 
d="M416 -141q-66 12 -108.5 30.5t-64.5 45t-30 56t-8 71.5v79q0 63 -26.5 95t-93.5 32h-26v38h26q67 0 93.5 32t26.5 95v79q0 42 8 71.5t30 56t64.5 45t108.5 30.5l7 -32q-58 -15 -91 -29.5t-50.5 -36.5t-22.5 -45.5t-5 -65.5v-75q0 -63 -26.5 -96t-77.5 -48
q54 -18 79 -49.5t25 -94.5v-75q0 -42 5 -65.5t22.5 -45.5t50.5 -36.5t91 -29.5z" />
    <glyph glyph-name="bar" unicode="|" horiz-adv-x="286" 
d="M121 -128v926h44v-926h-44z" />
    <glyph glyph-name="braceright" unicode="}" horiz-adv-x="480" 
d="M64 -141l-7 32q58 15 91 29.5t50.5 36.5t22.5 45.5t5 65.5v75q0 63 26.5 96t77.5 48q-54 18 -79 49.5t-25 94.5v75q0 42 -5 65.5t-22.5 45.5t-50.5 36.5t-91 29.5l7 32q66 -12 108.5 -30.5t64.5 -45t30 -56t8 -71.5v-79q0 -63 26.5 -95t93.5 -32h26v-38h-26
q-67 0 -93.5 -32t-26.5 -95v-79q0 -42 -8 -71.5t-30 -56t-64.5 -45t-108.5 -30.5z" />
    <glyph glyph-name="asciitilde" unicode="~" horiz-adv-x="460" 
d="M116 242l-34 9q14 52 33.5 72.5t50.5 20.5q20 0 66 -20.5t62 -20.5q18 0 28.5 10.5t21.5 39.5l34 -9q-14 -52 -33.5 -72.5t-50.5 -20.5q-20 0 -66 20.5t-62 20.5q-18 0 -28.5 -10.5t-21.5 -39.5z" />
    <glyph glyph-name="uni00A0" unicode="&#xa0;" horiz-adv-x="300" 
 />
    <glyph glyph-name="exclamdown" unicode="&#xa1;" horiz-adv-x="252" 
d="M97 0v70l15 447h28l15 -447v-70h-58zM93 615v85h66v-85h-66z" />
    <glyph glyph-name="cent" unicode="&#xa2;" horiz-adv-x="581" 
d="M214 -6l22 109q-78 27 -126 96.5t-48 155.5q0 108 76 187.5t184 79.5h15l16 84h50l-18 -91q74 -18 141 -87l-35 -36q-61 63 -118 77l-83 -432q16 -3 35 -3q95 0 171 85l34 -30q-89 -101 -208 -101q-20 0 -39 3l-19 -97h-50zM248 149l82 427h-9q-87 0 -146.5 -64
t-59.5 -157q0 -70 37 -126t96 -80z" />
    <glyph glyph-name="sterling" unicode="&#xa3;" horiz-adv-x="644" 
d="M70 0v25l86 20v260h-86v48h86v118q0 116 65 181q58 58 150 58q129 0 210 -106l-40 -31q-35 44 -74 67t-97 23q-70 0 -113 -43q-50 -50 -50 -148v-119h298v-48h-298v-258h374v-47h-511z" />
    <glyph glyph-name="currency" unicode="&#xa4;" horiz-adv-x="720" 
d="M428 -12q-102 0 -177.5 70.5t-101.5 186.5h-90v48h83q-3 27 -3 57q0 34 5 66h-85v48h94q28 110 100.5 179t167.5 69q147 0 240 -140l-40 -27q-43 63 -88.5 92t-113.5 29q-74 0 -132 -56t-83 -146h284v-48h-293q-5 -30 -5 -66q0 -28 3 -57h295v-48h-286q24 -95 85 -153
t144 -58q111 0 194 128l38 -25q-97 -149 -235 -149z" />
    <glyph glyph-name="yen" unicode="&#xa5;" horiz-adv-x="686" 
d="M318 0v125h-213v45h213v98h-213v45h195l-268 387h63l249 -373l250 373h60l-269 -387h196v-45h-213v-98h213v-45h-213v-125h-50z" />
    <glyph glyph-name="brokenbar" unicode="&#xa6;" horiz-adv-x="222" 
d="M138 411h-54v250h54v-250zM138 -89h-54v250h54v-250z" />
    <glyph glyph-name="section" unicode="&#xa7;" horiz-adv-x="632" 
d="M329 -10q-65 0 -124.5 26t-102.5 69l38 36q80 -82 194 -82q57 0 86.5 22t29.5 57q0 33 -41 57.5t-142 48.5q-111 27 -156.5 59t-45.5 82q0 44 40 74.5t108 38.5q-86 38 -86 107q0 56 48.5 90.5t127.5 34.5q65 0 124.5 -26t102.5 -69l-38 -36q-80 82 -194 82
q-57 0 -86.5 -22t-29.5 -57q0 -33 41 -57.5t142 -48.5q111 -27 156.5 -59t45.5 -82q0 -44 -40 -74.5t-108 -38.5q86 -38 86 -107q0 -56 -48.5 -90.5t-127.5 -34.5zM386 253q57 0 93 23.5t36 56.5q0 29 -34.5 52.5t-122.5 45.5q-64 16 -112 16q-57 0 -93 -23.5t-36 -56.5
q0 -29 34.5 -52.5t122.5 -45.5q63 -16 112 -16z" />
    <glyph glyph-name="dieresis" unicode="&#xa8;" 
d="M134 595v80h69v-80h-69zM297 595v80h69v-80h-69z" />
    <glyph glyph-name="copyright" unicode="&#xa9;" horiz-adv-x="830" 
d="M414 -12q-151 0 -256 106t-105 256q0 149 106 255.5t257 106.5t256 -106t105 -256q0 -149 -106 -255.5t-257 -106.5zM414 16q141 0 237 98t96 238q0 138 -95 235t-236 97t-237 -98t-96 -238q0 -138 95 -235t236 -97zM419 166q-77 0 -129.5 55.5t-52.5 134.5q0 77 53 133
t130 56t141 -61l-30 -31q-54 52 -112 52q-59 0 -98.5 -43.5t-39.5 -106.5q0 -61 40.5 -105t98.5 -44q60 0 115 52l28 -28q-66 -64 -144 -64z" />
    <glyph glyph-name="ordfeminine" unicode="&#xaa;" horiz-adv-x="390" 
d="M62 293v40h252v-40h-252zM174 411q-44 0 -76.5 24.5t-32.5 67.5t34 68t90 25q41 0 83 -11v5q0 38 -22 57.5t-61 19.5q-37 0 -88 -24l-13 34q55 26 103 26q58 0 90 -32q28 -28 28 -80v-174h-37v41q-36 -47 -98 -47zM176 447q39 0 67.5 21.5t28.5 55.5v27q-36 11 -85 11
q-31 0 -56.5 -14.5t-25.5 -44.5q0 -26 20.5 -41t50.5 -15z" />
    <glyph glyph-name="guillemotleft" unicode="&#xab;" horiz-adv-x="515" 
d="M211 42l-160 209v8l160 209l37 -24l-137 -188l137 -190zM415 42l-160 209v8l160 209l37 -24l-137 -188l137 -190z" />
    <glyph glyph-name="logicalnot" unicode="&#xac;" horiz-adv-x="640" 
d="M547 259h-50v180h-404v51h454v-231z" />
    <glyph glyph-name="uni00AD" unicode="&#xad;" horiz-adv-x="408" 
d="M70 269v56h268v-56h-268z" />
    <glyph glyph-name="registered" unicode="&#xae;" horiz-adv-x="830" 
d="M414 -12q-151 0 -256 106t-105 256q0 149 106 255.5t257 106.5t256 -106t105 -256q0 -149 -106 -255.5t-257 -106.5zM414 16q141 0 237 98t96 238q0 138 -95 235t-236 97t-237 -98t-96 -238q0 -138 95 -235t236 -97zM276 177v366h164q70 0 107 -37q28 -28 28 -70
q0 -43 -27 -69.5t-73 -35.5l122 -154h-56l-118 147h-104v-147h-43zM319 364h114q43 0 70 18.5t27 53.5q0 30 -24.5 48t-67.5 18h-119v-138z" />
    <glyph glyph-name="macron" unicode="&#xaf;" 
d="M100 600v53h300v-53h-300z" />
    <glyph glyph-name="degree" unicode="&#xb0;" horiz-adv-x="450" 
d="M225 412q-60 0 -105.5 44t-45.5 104q0 58 45.5 102t105.5 44t105.5 -44t45.5 -104q0 -58 -45.5 -102t-105.5 -44zM225 456q43 0 72 31t29 73q0 41 -29 71.5t-72 30.5t-72 -31t-29 -73q0 -41 29 -71.5t72 -30.5z" />
    <glyph glyph-name="plusminus" unicode="&#xb1;" horiz-adv-x="640" 
d="M569 294h-222v-178h-53v178h-222v48h222v177h53v-177h222v-48zM569 22h-497v48h497v-48z" />
    <glyph glyph-name="twosuperior" unicode="&#xb2;" 
d="M0 0v700h500v-700h-500zM81 49h339l-170 255zM49 96l171 254l-171 254v-508zM450 96v508l-171 -254zM250 395l170 255h-339z" />
    <glyph glyph-name="threesuperior" unicode="&#xb3;" 
d="M0 0v700h500v-700h-500zM81 49h339l-170 255zM49 96l171 254l-171 254v-508zM450 96v508l-171 -254zM250 395l170 255h-339z" />
    <glyph glyph-name="acute" unicode="&#xb4;" 
d="M194 595l88 133l61 -30l-107 -103h-42z" />
    <glyph glyph-name="mu" unicode="&#xb5;" horiz-adv-x="623" 
d="M297 -12q-99 0 -155 85v-233h-49v670h49v-303q0 -80 43 -127t119 -47t126.5 51.5t50.5 130.5v295h49v-510h-49v95q-61 -107 -184 -107z" />
    <glyph glyph-name="mu" unicode="&#x3bc;" horiz-adv-x="623" 
d="M297 -12q-99 0 -155 85v-233h-49v670h49v-303q0 -80 43 -127t119 -47t126.5 51.5t50.5 130.5v295h49v-510h-49v95q-61 -107 -184 -107z" />
    <glyph glyph-name="paragraph" unicode="&#xb6;" horiz-adv-x="480" 
d="M333 0v277h-6q-120 0 -197 56.5t-77 156.5q0 97 72 153.5t187 56.5h74v-700h-53z" />
    <glyph glyph-name="periodcentered" unicode="&#xb7;" horiz-adv-x="230" 
d="M82 255v85h66v-85h-66z" />
    <glyph glyph-name="cedilla" unicode="&#xb8;" 
d="M217 -148l-55 26l90 132h43z" />
    <glyph glyph-name="onesuperior" unicode="&#xb9;" 
d="M0 0v700h500v-700h-500zM81 49h339l-170 255zM49 96l171 254l-171 254v-508zM450 96v508l-171 -254zM250 395l170 255h-339z" />
    <glyph glyph-name="ordmasculine" unicode="&#xba;" horiz-adv-x="390" 
d="M51 293v40h288v-40h-288zM194 411q-61 0 -102 43t-41 104q0 60 41.5 103.5t103.5 43.5q61 0 102 -43t41 -104q0 -60 -41.5 -103.5t-103.5 -43.5zM196 450q44 0 72 31t28 77q0 45 -29.5 76.5t-72.5 31.5q-44 0 -72 -31t-28 -77q0 -45 29.5 -76.5t72.5 -31.5z" />
    <glyph glyph-name="guillemotright" unicode="&#xbb;" horiz-adv-x="515" 
d="M100 42l-37 24l137 188l-137 190l37 24l160 -209v-8zM304 42l-37 24l137 188l-137 190l37 24l160 -209v-8z" />
    <glyph glyph-name="onequarter" unicode="&#xbc;" 
d="M0 0v700h500v-700h-500zM81 49h339l-170 255zM49 96l171 254l-171 254v-508zM450 96v508l-171 -254zM250 395l170 255h-339z" />
    <glyph glyph-name="onehalf" unicode="&#xbd;" 
d="M0 0v700h500v-700h-500zM81 49h339l-170 255zM49 96l171 254l-171 254v-508zM450 96v508l-171 -254zM250 395l170 255h-339z" />
    <glyph glyph-name="threequarters" unicode="&#xbe;" 
d="M0 0v700h500v-700h-500zM81 49h339l-170 255zM49 96l171 254l-171 254v-508zM450 96v508l-171 -254zM250 395l170 255h-339z" />
    <glyph glyph-name="questiondown" unicode="&#xbf;" horiz-adv-x="534" 
d="M269 -9q-97 0 -157 56.5t-60 140.5q0 88 59.5 140.5t152.5 63.5l9 125h32l13 -162l-5 -5q-99 -2 -153.5 -45t-54.5 -117q0 -63 46 -107t120 -44q109 0 193 103l36 -30q-46 -58 -101 -88.5t-130 -30.5zM256 615v85h66v-85h-66z" />
    <glyph glyph-name="Agrave" unicode="&#xc0;" horiz-adv-x="790" 
d="M44 0l326 705h50l326 -705h-57l-89 196h-413l-89 -196h-54zM209 243h369l-184 405zM370 765l-107 103l61 30l88 -133h-42z" />
    <glyph glyph-name="Aacute" unicode="&#xc1;" horiz-adv-x="790" 
d="M44 0l326 705h50l326 -705h-57l-89 196h-413l-89 -196h-54zM209 243h369l-184 405zM378 765l88 133l61 -30l-107 -103h-42z" />
    <glyph glyph-name="Acircumflex" unicode="&#xc2;" horiz-adv-x="790" 
d="M44 0l326 705h50l326 -705h-57l-89 196h-413l-89 -196h-54zM209 243h369l-184 405zM275 760l100 122h40l100 -122h-47l-74 68l-74 -68h-45z" />
    <glyph glyph-name="Atilde" unicode="&#xc3;" horiz-adv-x="790" 
d="M44 0l326 705h50l326 -705h-57l-89 196h-413l-89 -196h-54zM209 243h369l-184 405zM281 756l-34 9q14 52 33.5 72.5t50.5 20.5q19 0 65 -20.5t63 -20.5q18 0 28.5 10.5t21.5 39.5l34 -9q-14 -52 -33.5 -72.5t-50.5 -20.5q-19 0 -65 20.5t-63 20.5q-18 0 -28.5 -10.5
t-21.5 -39.5z" />
    <glyph glyph-name="Adieresis" unicode="&#xc4;" horiz-adv-x="790" 
d="M44 0l326 705h50l326 -705h-57l-89 196h-413l-89 -196h-54zM209 243h369l-184 405zM279 765v80h69v-80h-69zM442 765v80h69v-80h-69z" />
    <glyph glyph-name="Aring" unicode="&#xc5;" horiz-adv-x="790" 
d="M44 0l313 677q-26 12 -43 35.5t-17 52.5q0 38 29.5 65.5t68.5 27.5t68.5 -28t29.5 -67q0 -28 -17 -51t-43 -34l313 -678h-57l-89 196h-413l-89 -196h-54zM209 243h369l-184 405zM395 702q25 0 43.5 18.5t18.5 44.5q0 25 -18.5 43t-43.5 18q-26 0 -44 -18.5t-18 -44.5
q0 -25 18.5 -43t43.5 -18z" />
    <glyph glyph-name="AE" unicode="&#xc6;" horiz-adv-x="1045" 
d="M20 0l424 700h533v-48h-431v-275h386v-48h-386v-281h436v-48h-488v196h-300l-118 -196h-56zM222 243h272v410h-26z" />
    <glyph glyph-name="Ccedilla" unicode="&#xc7;" horiz-adv-x="738" 
d="M367 -148l-55 26l76 111q-137 13 -226 115t-89 246q0 150 100 256t250 106q87 0 149.5 -28.5t122.5 -83.5l-37 -38q-106 103 -236 103q-126 0 -210.5 -90.5t-84.5 -224.5q0 -133 85.5 -224t210.5 -91q73 0 129 27t112 82l35 -34q-58 -57 -120.5 -88t-144.5 -34z" />
    <glyph glyph-name="Egrave" unicode="&#xc8;" horiz-adv-x="670" 
d="M104 0v700h498v-48h-446v-275h401v-48h-401v-281h451v-48h-503zM349 765l-107 103l61 30l88 -133h-42z" />
    <glyph glyph-name="Eacute" unicode="&#xc9;" horiz-adv-x="670" 
d="M104 0v700h498v-48h-446v-275h401v-48h-401v-281h451v-48h-503zM309 765l88 133l61 -30l-107 -103h-42z" />
    <glyph glyph-name="Ecircumflex" unicode="&#xca;" horiz-adv-x="670" 
d="M104 0v700h498v-48h-446v-275h401v-48h-401v-281h451v-48h-503zM229 765l100 122h40l100 -122h-47l-74 68l-74 -68h-45z" />
    <glyph glyph-name="Edieresis" unicode="&#xcb;" horiz-adv-x="670" 
d="M104 0v700h498v-48h-446v-275h401v-48h-401v-281h451v-48h-503zM233 765v80h69v-80h-69zM396 765v80h69v-80h-69z" />
    <glyph glyph-name="Igrave" unicode="&#xcc;" horiz-adv-x="274" 
d="M111 0v700h52v-700h-52zM114 765l-107 103l61 30l88 -133h-42z" />
    <glyph glyph-name="Iacute" unicode="&#xcd;" horiz-adv-x="274" 
d="M111 0v700h52v-700h-52zM118 765l88 133l61 -30l-107 -103h-42z" />
    <glyph glyph-name="Icircumflex" unicode="&#xce;" horiz-adv-x="274" 
d="M111 0v700h52v-700h-52zM18 765l100 122h40l100 -122h-47l-74 68l-74 -68h-45z" />
    <glyph glyph-name="Idieresis" unicode="&#xcf;" horiz-adv-x="274" 
d="M111 0v700h52v-700h-52zM22 765v80h69v-80h-69zM185 765v80h69v-80h-69z" />
    <glyph glyph-name="Eth" unicode="&#xd0;" horiz-adv-x="812" 
d="M134 0v328h-75v48h75v324h233q164 0 268 -99.5t104 -250.5q0 -150 -104.5 -250t-267.5 -100h-233zM186 48h181q143 0 230.5 86t87.5 216q0 128 -87.5 215t-230.5 87h-181v-276h232v-48h-232v-280z" />
    <glyph glyph-name="Ntilde" unicode="&#xd1;" horiz-adv-x="790" 
d="M104 0v700h49l483 -609v609h50v-700h-39l-493 622v-622h-50zM281 756l-34 9q14 52 33.5 72.5t50.5 20.5q19 0 65 -20.5t63 -20.5q18 0 28.5 10.5t21.5 39.5l34 -9q-14 -52 -33.5 -72.5t-50.5 -20.5q-19 0 -65 20.5t-63 20.5q-18 0 -28.5 -10.5t-21.5 -39.5z" />
    <glyph glyph-name="Ograve" unicode="&#xd2;" horiz-adv-x="850" 
d="M424 -12q-155 0 -253 106.5t-98 255.5q0 148 99 255t254 107t253 -106.5t98 -255.5q0 -148 -99 -255t-254 -107zM426 35q128 0 212.5 91t84.5 224q0 131 -85.5 223t-213.5 92t-212.5 -91t-84.5 -224q0 -131 85.5 -223t213.5 -92zM399 765l-107 103l61 30l88 -133h-42z
" />
    <glyph glyph-name="Oacute" unicode="&#xd3;" horiz-adv-x="850" 
d="M424 -12q-155 0 -253 106.5t-98 255.5q0 148 99 255t254 107t253 -106.5t98 -255.5q0 -148 -99 -255t-254 -107zM426 35q128 0 212.5 91t84.5 224q0 131 -85.5 223t-213.5 92t-212.5 -91t-84.5 -224q0 -131 85.5 -223t213.5 -92zM409 765l88 133l61 -30l-107 -103h-42z
" />
    <glyph glyph-name="Ocircumflex" unicode="&#xd4;" horiz-adv-x="850" 
d="M424 -12q-155 0 -253 106.5t-98 255.5q0 148 99 255t254 107t253 -106.5t98 -255.5q0 -148 -99 -255t-254 -107zM426 35q128 0 212.5 91t84.5 224q0 131 -85.5 223t-213.5 92t-212.5 -91t-84.5 -224q0 -131 85.5 -223t213.5 -92zM305 765l100 122h40l100 -122h-47l-74 68
l-74 -68h-45z" />
    <glyph glyph-name="Otilde" unicode="&#xd5;" horiz-adv-x="850" 
d="M424 -12q-155 0 -253 106.5t-98 255.5q0 148 99 255t254 107t253 -106.5t98 -255.5q0 -148 -99 -255t-254 -107zM426 35q128 0 212.5 91t84.5 224q0 131 -85.5 223t-213.5 92t-212.5 -91t-84.5 -224q0 -131 85.5 -223t213.5 -92zM311 756l-34 9q14 52 33.5 72.5
t50.5 20.5q19 0 65 -20.5t63 -20.5q18 0 28.5 10.5t21.5 39.5l34 -9q-14 -52 -33.5 -72.5t-50.5 -20.5q-19 0 -65 20.5t-63 20.5q-18 0 -28.5 -10.5t-21.5 -39.5z" />
    <glyph glyph-name="Odieresis" unicode="&#xd6;" horiz-adv-x="850" 
d="M424 -12q-155 0 -253 106.5t-98 255.5q0 148 99 255t254 107t253 -106.5t98 -255.5q0 -148 -99 -255t-254 -107zM426 35q128 0 212.5 91t84.5 224q0 131 -85.5 223t-213.5 92t-212.5 -91t-84.5 -224q0 -131 85.5 -223t213.5 -92zM309 765v80h69v-80h-69zM472 765v80h69
v-80h-69z" />
    <glyph glyph-name="multiply" unicode="&#xd7;" horiz-adv-x="640" 
d="M553 154l-37 -37l-197 198l-196 -198l-37 37l197 197l-197 197l37 37l196 -198l197 198l37 -37l-197 -197z" />
    <glyph glyph-name="Oslash" unicode="&#xd8;" horiz-adv-x="850" 
d="M424 -12q-133 0 -228 82l-71 -75h-60l100 106q-92 103 -92 249q0 148 99 255t254 107q134 0 228 -83l71 76h60l-100 -106q92 -103 92 -249q0 -148 -99 -255t-254 -107zM426 35q128 0 212.5 91t84.5 224q0 122 -74 210l-419 -450q81 -75 196 -75zM201 140l419 450
q-81 75 -196 75q-128 0 -212.5 -91t-84.5 -224q0 -122 74 -210z" />
    <glyph glyph-name="Ugrave" unicode="&#xd9;" horiz-adv-x="760" 
d="M380 -11q-129 0 -208 79t-79 223v409h52v-404q0 -123 63 -191.5t174 -68.5q109 0 171 65.5t62 189.5v409h52v-403q0 -147 -78 -227.5t-209 -80.5zM363 760l-107 103l61 30l88 -133h-42z" />
    <glyph glyph-name="Uacute" unicode="&#xda;" horiz-adv-x="760" 
d="M380 -11q-129 0 -208 79t-79 223v409h52v-404q0 -123 63 -191.5t174 -68.5q109 0 171 65.5t62 189.5v409h52v-403q0 -147 -78 -227.5t-209 -80.5zM355 760l88 133l61 -30l-107 -103h-42z" />
    <glyph glyph-name="Ucircumflex" unicode="&#xdb;" horiz-adv-x="760" 
d="M380 -11q-129 0 -208 79t-79 223v409h52v-404q0 -123 63 -191.5t174 -68.5q109 0 171 65.5t62 189.5v409h52v-403q0 -147 -78 -227.5t-209 -80.5zM260 760l100 122h40l100 -122h-47l-74 68l-74 -68h-45z" />
    <glyph glyph-name="Udieresis" unicode="&#xdc;" horiz-adv-x="760" 
d="M380 -11q-129 0 -208 79t-79 223v409h52v-404q0 -123 63 -191.5t174 -68.5q109 0 171 65.5t62 189.5v409h52v-403q0 -147 -78 -227.5t-209 -80.5zM264 760v80h69v-80h-69zM427 760v80h69v-80h-69z" />
    <glyph glyph-name="Yacute" unicode="&#xdd;" horiz-adv-x="716" 
d="M332 0v277l-300 423h65l262 -376l263 376h62l-300 -422v-278h-52zM340 760l88 133l61 -30l-107 -103h-42z" />
    <glyph glyph-name="Thorn" unicode="&#xde;" horiz-adv-x="673" 
d="M104 0v700h52v-127h202q117 0 188.5 -57.5t71.5 -158.5q0 -106 -78.5 -165t-194.5 -59h-189v-133h-52zM156 181h192q98 0 158 48t60 127q0 81 -57.5 125t-154.5 44h-198v-344z" />
    <glyph glyph-name="germandbls" unicode="&#xdf;" horiz-adv-x="620" 
d="M289 -2v43q101 2 158 39.5t57 108.5q0 130 -215 153v41q170 52 170 177q0 57 -41.5 94t-107.5 37q-74 0 -121 -52t-47 -139v-500h-49v500q0 105 60 171t160 66q89 0 144 -50.5t55 -126.5q0 -68 -45.5 -117t-111.5 -73q88 -15 145 -59.5t57 -121.5q0 -90 -72 -140.5
t-196 -50.5z" />
    <glyph glyph-name="agrave" unicode="&#xe0;" horiz-adv-x="574" 
d="M248 -12q-78 0 -137.5 43t-59.5 119q0 78 61 122t162 44q86 0 169 -22v22q0 76 -44 116t-124 40t-160 -41l-18 43q95 44 181 44q105 0 161 -56q52 -52 52 -144v-318h-48v85q-69 -97 -195 -97zM251 34q80 0 136.5 44.5t56.5 112.5v58q-90 23 -173 23q-80 0 -124 -32.5
t-44 -88.5q0 -53 43.5 -85t104.5 -32zM264 595l-107 103l61 30l88 -133h-42z" />
    <glyph glyph-name="aacute" unicode="&#xe1;" horiz-adv-x="574" 
d="M248 -12q-78 0 -137.5 43t-59.5 119q0 78 61 122t162 44q86 0 169 -22v22q0 76 -44 116t-124 40t-160 -41l-18 43q95 44 181 44q105 0 161 -56q52 -52 52 -144v-318h-48v85q-69 -97 -195 -97zM251 34q80 0 136.5 44.5t56.5 112.5v58q-90 23 -173 23q-80 0 -124 -32.5
t-44 -88.5q0 -53 43.5 -85t104.5 -32zM256 595l88 133l61 -30l-107 -103h-42z" />
    <glyph glyph-name="acircumflex" unicode="&#xe2;" horiz-adv-x="574" 
d="M248 -12q-78 0 -137.5 43t-59.5 119q0 78 61 122t162 44q86 0 169 -22v22q0 76 -44 116t-124 40t-160 -41l-18 43q95 44 181 44q105 0 161 -56q52 -52 52 -144v-318h-48v85q-69 -97 -195 -97zM251 34q80 0 136.5 44.5t56.5 112.5v58q-90 23 -173 23q-80 0 -124 -32.5
t-44 -88.5q0 -53 43.5 -85t104.5 -32zM170 595l100 122h40l100 -122h-47l-74 68l-74 -68h-45z" />
    <glyph glyph-name="atilde" unicode="&#xe3;" horiz-adv-x="574" 
d="M248 -12q-78 0 -137.5 43t-59.5 119q0 78 61 122t162 44q86 0 169 -22v22q0 76 -44 116t-124 40t-160 -41l-18 43q95 44 181 44q105 0 161 -56q52 -52 52 -144v-318h-48v85q-69 -97 -195 -97zM251 34q80 0 136.5 44.5t56.5 112.5v58q-90 23 -173 23q-80 0 -124 -32.5
t-44 -88.5q0 -53 43.5 -85t104.5 -32zM176 586l-34 9q14 52 33.5 72.5t50.5 20.5q19 0 65.5 -20.5t62.5 -20.5q18 0 28.5 10.5t21.5 39.5l34 -9q-14 -52 -33.5 -72.5t-50.5 -20.5q-20 0 -66 20.5t-62 20.5q-18 0 -28.5 -10.5t-21.5 -39.5z" />
    <glyph glyph-name="adieresis" unicode="&#xe4;" horiz-adv-x="574" 
d="M248 -12q-78 0 -137.5 43t-59.5 119q0 78 61 122t162 44q86 0 169 -22v22q0 76 -44 116t-124 40t-160 -41l-18 43q95 44 181 44q105 0 161 -56q52 -52 52 -144v-318h-48v85q-69 -97 -195 -97zM251 34q80 0 136.5 44.5t56.5 112.5v58q-90 23 -173 23q-80 0 -124 -32.5
t-44 -88.5q0 -53 43.5 -85t104.5 -32zM174 595v80h69v-80h-69zM337 595v80h69v-80h-69z" />
    <glyph glyph-name="aring" unicode="&#xe5;" horiz-adv-x="574" 
d="M248 -12q-78 0 -137.5 43t-59.5 119q0 78 61 122t162 44q86 0 169 -22v22q0 76 -44 116t-124 40t-160 -41l-18 43q95 44 181 44q105 0 161 -56q52 -52 52 -144v-318h-48v85q-69 -97 -195 -97zM251 34q80 0 136.5 44.5t56.5 112.5v58q-90 23 -173 23q-80 0 -124 -32.5
t-44 -88.5q0 -53 43.5 -85t104.5 -32zM290 593q-39 0 -68.5 28t-29.5 67q0 38 29.5 65.5t68.5 27.5t68.5 -28t29.5 -67q0 -38 -29.5 -65.5t-68.5 -27.5zM290 625q25 0 43.5 18.5t18.5 44.5q0 25 -18.5 43t-43.5 18q-26 0 -44 -18.5t-18 -44.5q0 -25 18.5 -43t43.5 -18z" />
    <glyph glyph-name="ae" unicode="&#xe6;" horiz-adv-x="954" 
d="M243 -12q-77 0 -134.5 43t-57.5 119q0 78 60 122t158 44q77 0 160 -22v22q0 76 -42 116t-119 40q-73 0 -153 -41l-18 43q93 44 174 44q158 0 193 -128q31 60 85.5 96t120.5 36q105 0 169.5 -76t64.5 -191q0 -12 -1 -20h-423q7 -92 64.5 -146.5t135.5 -54.5q100 0 175 80
l34 -30q-89 -96 -211 -96q-63 0 -117.5 29.5t-88.5 82.5q-97 -112 -229 -112zM246 34q118 0 204 107q-21 52 -22 109q-95 22 -162 22q-78 0 -120.5 -32.5t-42.5 -88.5q0 -54 41 -85.5t102 -31.5zM480 279h371q-6 84 -53 141t-130 57q-75 0 -128 -56.5t-60 -141.5z" />
    <glyph glyph-name="ccedilla" unicode="&#xe7;" horiz-adv-x="571" 
d="M263 -148l-55 26l76 112q-97 13 -161.5 88.5t-64.5 176.5q0 108 76 187.5t184 79.5q114 0 204 -94l-35 -36q-82 84 -170 84q-87 0 -146.5 -64t-59.5 -157q0 -92 61 -156.5t149 -64.5q95 0 171 85l34 -30q-86 -96 -196 -101z" />
    <glyph glyph-name="egrave" unicode="&#xe8;" horiz-adv-x="584" 
d="M308 -12q-103 0 -176.5 75t-73.5 193q0 112 69.5 189t172.5 77q105 0 169.5 -76t64.5 -191q0 -12 -1 -20h-423q7 -92 64.5 -146.5t135.5 -54.5q100 0 175 80l34 -30q-89 -96 -211 -96zM110 279h371q-6 84 -53 141t-130 57q-75 0 -128 -56.5t-60 -141.5zM286 595l-107 103
l61 30l88 -133h-42z" />
    <glyph glyph-name="eacute" unicode="&#xe9;" horiz-adv-x="584" 
d="M308 -12q-103 0 -176.5 75t-73.5 193q0 112 69.5 189t172.5 77q105 0 169.5 -76t64.5 -191q0 -12 -1 -20h-423q7 -92 64.5 -146.5t135.5 -54.5q100 0 175 80l34 -30q-89 -96 -211 -96zM110 279h371q-6 84 -53 141t-130 57q-75 0 -128 -56.5t-60 -141.5zM257 595l88 133
l61 -30l-107 -103h-42z" />
    <glyph glyph-name="ecircumflex" unicode="&#xea;" horiz-adv-x="584" 
d="M308 -12q-103 0 -176.5 75t-73.5 193q0 112 69.5 189t172.5 77q105 0 169.5 -76t64.5 -191q0 -12 -1 -20h-423q7 -92 64.5 -146.5t135.5 -54.5q100 0 175 80l34 -30q-89 -96 -211 -96zM110 279h371q-6 84 -53 141t-130 57q-75 0 -128 -56.5t-60 -141.5zM177 595l100 122
h40l100 -122h-47l-74 68l-74 -68h-45z" />
    <glyph glyph-name="edieresis" unicode="&#xeb;" horiz-adv-x="584" 
d="M308 -12q-103 0 -176.5 75t-73.5 193q0 112 69.5 189t172.5 77q105 0 169.5 -76t64.5 -191q0 -12 -1 -20h-423q7 -92 64.5 -146.5t135.5 -54.5q100 0 175 80l34 -30q-89 -96 -211 -96zM110 279h371q-6 84 -53 141t-130 57q-75 0 -128 -56.5t-60 -141.5zM181 595v80h69
v-80h-69zM344 595v80h69v-80h-69z" />
    <glyph glyph-name="igrave" unicode="&#xec;" horiz-adv-x="249" 
d="M100 0v510h49v-510h-49zM102 595l-107 103l61 30l88 -133h-42z" />
    <glyph glyph-name="iacute" unicode="&#xed;" horiz-adv-x="249" 
d="M100 0v510h49v-510h-49zM105 595l88 133l61 -30l-107 -103h-42z" />
    <glyph glyph-name="icircumflex" unicode="&#xee;" horiz-adv-x="249" 
d="M100 0v510h49v-510h-49zM4 595l100 122h40l100 -122h-47l-74 68l-74 -68h-45z" />
    <glyph glyph-name="idieresis" unicode="&#xef;" horiz-adv-x="249" 
d="M100 0v510h49v-510h-49zM8 595v80h69v-80h-69zM171 595v80h69v-80h-69z" />
    <glyph glyph-name="eth" unicode="&#xf0;" horiz-adv-x="628" 
d="M309 -12q-107 0 -179 75.5t-72 181.5q0 105 71 173t169 68q95 0 177 -63l-147 208l-133 -68l-29 36l137 67l-45 64h63l27 -41l98 50l28 -36l-102 -50l109 -161q43 -63 65 -120t22 -125q0 -106 -72.5 -182.5t-186.5 -76.5zM314 34q88 0 144.5 62t56.5 148q0 82 -61 140
t-150 58q-87 0 -140 -57.5t-53 -144.5q0 -81 58.5 -143.5t144.5 -62.5z" />
    <glyph glyph-name="ntilde" unicode="&#xf1;" horiz-adv-x="613" 
d="M93 0v510h49v-95q61 107 184 107q95 0 149.5 -58.5t54.5 -151.5v-312h-49v303q0 80 -43 127t-119 47t-126.5 -51.5t-50.5 -130.5v-295h-49zM197 586l-34 9q14 52 33.5 72.5t50.5 20.5q19 0 65.5 -20.5t62.5 -20.5q18 0 28.5 10.5t21.5 39.5l34 -9q-14 -52 -33.5 -72.5
t-50.5 -20.5q-19 0 -65 20.5t-63 20.5q-18 0 -28.5 -10.5t-21.5 -39.5z" />
    <glyph glyph-name="ograve" unicode="&#xf2;" horiz-adv-x="640" 
d="M319 -12q-112 0 -186.5 78.5t-74.5 188.5q0 109 75.5 188t187.5 79t186.5 -78.5t74.5 -188.5q0 -109 -75.5 -188t-187.5 -79zM321 34q85 0 146.5 65t61.5 156q0 92 -61.5 156.5t-148.5 64.5q-86 0 -147 -64.5t-61 -156.5t61 -156.5t149 -64.5zM298 595l-107 103l61 30
l88 -133h-42z" />
    <glyph glyph-name="oacute" unicode="&#xf3;" horiz-adv-x="640" 
d="M319 -12q-112 0 -186.5 78.5t-74.5 188.5q0 109 75.5 188t187.5 79t186.5 -78.5t74.5 -188.5q0 -109 -75.5 -188t-187.5 -79zM321 34q85 0 146.5 65t61.5 156q0 92 -61.5 156.5t-148.5 64.5q-86 0 -147 -64.5t-61 -156.5t61 -156.5t149 -64.5zM300 595l88 133l61 -30
l-107 -103h-42z" />
    <glyph glyph-name="ocircumflex" unicode="&#xf4;" horiz-adv-x="640" 
d="M319 -12q-112 0 -186.5 78.5t-74.5 188.5q0 109 75.5 188t187.5 79t186.5 -78.5t74.5 -188.5q0 -109 -75.5 -188t-187.5 -79zM321 34q85 0 146.5 65t61.5 156q0 92 -61.5 156.5t-148.5 64.5q-86 0 -147 -64.5t-61 -156.5t61 -156.5t149 -64.5zM200 595l100 122h40
l100 -122h-47l-74 68l-74 -68h-45z" />
    <glyph glyph-name="otilde" unicode="&#xf5;" horiz-adv-x="640" 
d="M319 -12q-112 0 -186.5 78.5t-74.5 188.5q0 109 75.5 188t187.5 79t186.5 -78.5t74.5 -188.5q0 -109 -75.5 -188t-187.5 -79zM321 34q85 0 146.5 65t61.5 156q0 92 -61.5 156.5t-148.5 64.5q-86 0 -147 -64.5t-61 -156.5t61 -156.5t149 -64.5zM206 586l-34 9
q14 52 33.5 72.5t50.5 20.5q20 0 66 -20.5t62 -20.5q18 0 28.5 10.5t21.5 39.5l34 -9q-14 -52 -33.5 -72.5t-50.5 -20.5q-20 0 -66 20.5t-62 20.5q-18 0 -28.5 -10.5t-21.5 -39.5z" />
    <glyph glyph-name="odieresis" unicode="&#xf6;" horiz-adv-x="640" 
d="M319 -12q-112 0 -186.5 78.5t-74.5 188.5q0 109 75.5 188t187.5 79t186.5 -78.5t74.5 -188.5q0 -109 -75.5 -188t-187.5 -79zM321 34q85 0 146.5 65t61.5 156q0 92 -61.5 156.5t-148.5 64.5q-86 0 -147 -64.5t-61 -156.5t61 -156.5t149 -64.5zM204 595v80h69v-80h-69z
M367 595v80h69v-80h-69z" />
    <glyph glyph-name="divide" unicode="&#xf7;" horiz-adv-x="640" 
d="M93 328v51h454v-51h-454zM287 129v85h66v-85h-66zM287 493v85h66v-85h-66z" />
    <glyph glyph-name="oslash" unicode="&#xf8;" horiz-adv-x="640" 
d="M319 -12q-96 0 -167 60l-52 -53h-57l79 82q-64 75 -64 178q0 109 75.5 188t187.5 79q96 0 167 -61l52 56h57l-80 -84q65 -75 65 -178q0 -109 -75.5 -188t-187.5 -79zM321 34q90 0 149 64t59 157q0 79 -47 141l-298 -310q58 -52 137 -52zM158 114l298 309q-59 53 -137 53
q-90 0 -149 -64t-59 -157q0 -80 47 -141z" />
    <glyph glyph-name="ugrave" unicode="&#xf9;" horiz-adv-x="613" 
d="M287 -12q-95 0 -149.5 58.5t-54.5 151.5v312h49v-303q0 -80 43 -127t119 -47t126.5 51.5t50.5 130.5v295h49v-510h-49v95q-61 -107 -184 -107zM289 590l-107 103l61 30l88 -133h-42z" />
    <glyph glyph-name="uacute" unicode="&#xfa;" horiz-adv-x="613" 
d="M287 -12q-95 0 -149.5 58.5t-54.5 151.5v312h49v-303q0 -80 43 -127t119 -47t126.5 51.5t50.5 130.5v295h49v-510h-49v95q-61 -107 -184 -107zM277 590l88 133l61 -30l-107 -103h-42z" />
    <glyph glyph-name="ucircumflex" unicode="&#xfb;" horiz-adv-x="613" 
d="M287 -12q-95 0 -149.5 58.5t-54.5 151.5v312h49v-303q0 -80 43 -127t119 -47t126.5 51.5t50.5 130.5v295h49v-510h-49v95q-61 -107 -184 -107zM188 595l100 122h40l100 -122h-47l-74 68l-74 -68h-45z" />
    <glyph glyph-name="udieresis" unicode="&#xfc;" horiz-adv-x="613" 
d="M287 -12q-95 0 -149.5 58.5t-54.5 151.5v312h49v-303q0 -80 43 -127t119 -47t126.5 51.5t50.5 130.5v295h49v-510h-49v95q-61 -107 -184 -107zM192 595v80h69v-80h-69zM355 595v80h69v-80h-69z" />
    <glyph glyph-name="yacute" unicode="&#xfd;" horiz-adv-x="588" 
d="M155 -163q-51 0 -101 22l17 43q39 -19 87 -19q40 0 69 27t57 93l-245 507h57l212 -456l184 456h54l-221 -528q-33 -78 -73.5 -111.5t-96.5 -33.5zM281 590l88 133l61 -30l-107 -103h-42z" />
    <glyph glyph-name="thorn" unicode="&#xfe;" horiz-adv-x="660" 
d="M93 -160v890h49v-334q83 126 210 126q98 0 173 -73.5t75 -193.5q0 -119 -75 -193t-173 -74q-130 0 -210 122v-270h-49zM347 35q86 0 143 59.5t57 160.5q0 98 -58.5 159t-141.5 61t-145.5 -62.5t-62.5 -158.5q0 -95 62.5 -157t145.5 -62z" />
    <glyph glyph-name="ydieresis" unicode="&#xff;" horiz-adv-x="588" 
d="M155 -163q-51 0 -101 22l17 43q39 -19 87 -19q40 0 69 27t57 93l-245 507h57l212 -456l184 456h54l-221 -528q-33 -78 -73.5 -111.5t-96.5 -33.5zM178 595v80h69v-80h-69zM341 595v80h69v-80h-69z" />
    <glyph glyph-name="dotlessi" unicode="&#x131;" horiz-adv-x="249" 
d="M100 0v510h49v-510h-49z" />
    <glyph glyph-name="Lslash" unicode="&#x141;" horiz-adv-x="649" 
d="M134 0v316l-75 -23v48l75 23v336h51v-320l225 69v-48l-225 -69v-284h412v-48h-463z" />
    <glyph glyph-name="lslash" unicode="&#x142;" horiz-adv-x="309" 
d="M130 0v336l-76 -24v50l76 23v345h49v-330l76 24v-50l-76 -24v-350h-49z" />
    <glyph glyph-name="OE" unicode="&#x152;" horiz-adv-x="1152" 
d="M445 0q-164 0 -268 99.5t-104 250.5q0 150 104.5 250t267.5 100h639v-48h-431v-275h386v-48h-386v-281h436v-48h-644zM445 48h156v604h-156q-143 0 -230.5 -86t-87.5 -216q0 -128 87.5 -215t230.5 -87z" />
    <glyph glyph-name="oe" unicode="&#x153;" horiz-adv-x="1055" 
d="M318 -12q-110 0 -185 78.5t-75 188.5q0 109 75.5 188t186.5 79q79 0 141.5 -43t92.5 -113q28 71 86 113.5t132 42.5q105 0 169 -76t64 -191q0 -12 -1 -20h-423q7 -92 64.5 -146.5t135.5 -54.5q100 0 175 80l34 -30q-89 -96 -209 -96q-75 0 -136.5 42.5t-90.5 114.5
q-30 -70 -93 -113.5t-143 -43.5zM321 34q90 0 149 64t59 157q0 92 -61 156.5t-149 64.5q-90 0 -149 -64t-59 -157q0 -92 61 -156.5t149 -64.5zM581 279h371q-6 84 -53 141t-130 57q-75 0 -128 -56.5t-60 -141.5z" />
    <glyph glyph-name="Scaron" unicode="&#x160;" horiz-adv-x="640" 
d="M341 -10q-157 0 -282 112l34 39q59 -55 117 -79.5t134 -24.5q78 0 127.5 39.5t49.5 101.5q0 58 -41.5 92t-156.5 57q-126 26 -181 72t-55 127q0 78 64 131t161 53q74 0 129.5 -20.5t110.5 -64.5l-33 -41q-91 79 -209 79q-76 0 -123.5 -38.5t-47.5 -95.5q0 -59 42.5 -94
t161.5 -59q121 -25 175.5 -71t54.5 -124q0 -84 -65 -137.5t-167 -53.5zM307 765l-100 122h47l74 -68l74 68h45l-100 -122h-40z" />
    <glyph glyph-name="scaron" unicode="&#x161;" horiz-adv-x="497" 
d="M258 -10q-55 0 -111.5 20.5t-97.5 53.5l29 39q87 -67 183 -67q53 0 88 27t35 72q0 41 -34.5 62t-100.5 40q-35 10 -51 15t-45 18t-42.5 26t-25 34.5t-11.5 48.5q0 62 47 101.5t121 39.5q97 0 181 -56l-26 -41q-77 51 -157 51q-52 0 -84 -25.5t-32 -65.5q0 -16 8.5 -30
t20 -23t33 -18.5t37 -14.5t43.5 -13q38 -11 62 -20t51.5 -26t41 -41.5t13.5 -57.5q0 -67 -50.5 -108t-125.5 -41zM231 595l-100 122h47l74 -68l74 68h45l-100 -122h-40z" />
    <glyph glyph-name="Ydieresis" unicode="&#x178;" horiz-adv-x="716" 
d="M332 0v277l-300 423h65l262 -376l263 376h62l-300 -422v-278h-52zM242 760v80h69v-80h-69zM405 760v80h69v-80h-69z" />
    <glyph glyph-name="Zcaron" unicode="&#x17d;" horiz-adv-x="688" 
d="M68 0v29l479 624h-462v47h536v-29l-479 -624h479v-47h-553zM329 765l-100 122h47l74 -68l74 68h45l-100 -122h-40z" />
    <glyph glyph-name="zcaron" unicode="&#x17e;" horiz-adv-x="554" 
d="M58 0v28l368 438h-354v44h427v-28l-368 -438h368v-44h-441zM266 595l-100 122h47l74 -68l74 68h45l-100 -122h-40z" />
    <glyph glyph-name="florin" unicode="&#x192;" horiz-adv-x="506" 
d="M90 -5q-23 0 -49 4v44q20 -4 46 -4q67 0 82 82l49 263h-109v45h117l26 136q14 74 48.5 107t94.5 33q41 0 75 -10v-44q-40 10 -70 10q-41 0 -63 -23t-32 -76l-25 -133h155v-45h-163l-50 -266q-12 -63 -44 -93t-88 -30z" />
    <glyph glyph-name="circumflex" unicode="&#x2c6;" 
d="M130 595l100 122h40l100 -122h-47l-74 68l-74 -68h-45z" />
    <glyph glyph-name="caron" unicode="&#x2c7;" 
d="M230 595l-100 122h47l74 -68l74 68h45l-100 -122h-40z" />
    <glyph glyph-name="breve" unicode="&#x2d8;" 
d="M250 593q-56 0 -92.5 33t-40.5 91h39q19 -73 94 -73t94 73h39q-4 -58 -40.5 -91t-92.5 -33z" />
    <glyph glyph-name="dotaccent" unicode="&#x2d9;" 
d="M214 595v81h72v-81h-72z" />
    <glyph glyph-name="ring" unicode="&#x2da;" 
d="M250 593q-39 0 -68.5 28t-29.5 67q0 38 29.5 65.5t68.5 27.5t68.5 -28t29.5 -67q0 -38 -29.5 -65.5t-68.5 -27.5zM250 625q25 0 43.5 18.5t18.5 44.5q0 25 -18.5 43t-43.5 18q-26 0 -44 -18.5t-18 -44.5q0 -25 18.5 -43t43.5 -18z" />
    <glyph glyph-name="ogonek" unicode="&#x2db;" 
d="M356 -164h-13q-76 0 -116 29.5t-40 77.5q0 34 14 67h43q-6 -27 -6 -56q0 -81 118 -87v-31z" />
    <glyph glyph-name="tilde" unicode="&#x2dc;" 
d="M136 586l-34 9q14 52 33.5 72.5t50.5 20.5q19 0 65.5 -20.5t62.5 -20.5q18 0 28.5 10.5t21.5 39.5l34 -9q-14 -52 -33.5 -72.5t-50.5 -20.5q-19 0 -65.5 20.5t-62.5 20.5q-18 0 -28.5 -10.5t-21.5 -39.5z" />
    <glyph glyph-name="hungarumlaut" unicode="&#x2dd;" 
d="M102 595l89 133l55 -29l-101 -104h-43zM254 595l89 133l55 -29l-101 -104h-43z" />
    <glyph glyph-name="Omega" unicode="&#x3a9;" horiz-adv-x="792" 
d="M707 0h-240v176q90 15 138 77.5t48 156.5q0 108 -74.5 178t-183.5 70q-108 0 -182.5 -70t-74.5 -177q0 -92 49.5 -158.5t137.5 -76.5v-176h-240v47h197v90q-91 24 -144 100.5t-53 172.5q0 128 91.5 212.5t220.5 84.5q127 0 218 -84.5t91 -210.5q0 -98 -52 -173.5
t-144 -101.5v-90h197v-47z" />
    <glyph glyph-name="Omega" unicode="&#x2126;" horiz-adv-x="792" 
d="M707 0h-240v176q90 15 138 77.5t48 156.5q0 108 -74.5 178t-183.5 70q-108 0 -182.5 -70t-74.5 -177q0 -92 49.5 -158.5t137.5 -76.5v-176h-240v47h197v90q-91 24 -144 100.5t-53 172.5q0 128 91.5 212.5t220.5 84.5q127 0 218 -84.5t91 -210.5q0 -98 -52 -173.5
t-144 -101.5v-90h197v-47z" />
    <glyph glyph-name="pi" unicode="&#x3c0;" 
d="M0 0v700h500v-700h-500zM81 49h339l-170 255zM49 96l171 254l-171 254v-508zM450 96v508l-171 -254zM250 395l170 255h-339z" />
    <glyph glyph-name="afii10023" unicode="&#x401;" horiz-adv-x="670" 
d="M104 0v700h498v-48h-446v-275h401v-48h-401v-281h451v-48h-503zM239 765v80h69v-80h-69zM402 765v80h69v-80h-69z" />
    <glyph glyph-name="afii10051" unicode="&#x402;" horiz-adv-x="856" 
d="M564 -12q-51 0 -101 22l17 43q37 -18 87 -18q67 0 121 47t54 145q0 83 -49 135t-128 52q-74 0 -131 -23.5t-114 -74.5v-316h-52v652h-214v48h540v-48h-274v-280q112 89 242 89q104 0 168 -62t64 -171q0 -111 -64 -175.5t-166 -64.5z" />
    <glyph glyph-name="afii10052" unicode="&#x403;" horiz-adv-x="590" 
d="M104 0v700h437v-48h-385v-652h-52zM270 765l88 133l61 -30l-107 -103h-42z" />
    <glyph glyph-name="afii10053" unicode="&#x404;" horiz-adv-x="738" 
d="M421 -12q-149 0 -248.5 104t-99.5 256t100 258t250 106q86 0 146 -28.5t122 -85.5l-33 -36q-106 103 -236 103q-119 0 -202.5 -82t-91.5 -206h377v-48h-378q8 -126 92 -210t204 -84q73 0 129 27t112 82l35 -36q-118 -120 -278 -120z" />
    <glyph glyph-name="afii10054" unicode="&#x405;" horiz-adv-x="640" 
d="M341 -10q-157 0 -282 112l34 39q59 -55 117 -79.5t134 -24.5q78 0 127.5 39.5t49.5 101.5q0 58 -41.5 92t-156.5 57q-126 26 -181 72t-55 127q0 78 64 131t161 53q74 0 129.5 -20.5t110.5 -64.5l-33 -41q-91 79 -209 79q-76 0 -123.5 -38.5t-47.5 -95.5q0 -59 42.5 -94
t161.5 -59q121 -25 175.5 -71t54.5 -124q0 -84 -65 -137.5t-167 -53.5z" />
    <glyph glyph-name="afii10055" unicode="&#x406;" horiz-adv-x="274" 
d="M111 0v700h52v-700h-52z" />
    <glyph glyph-name="afii10056" unicode="&#x407;" horiz-adv-x="274" 
d="M111 0v700h52v-700h-52zM21 765v80h69v-80h-69zM184 765v80h69v-80h-69z" />
    <glyph glyph-name="afii10057" unicode="&#x408;" horiz-adv-x="549" 
d="M249 -10q-139 0 -212 131l43 27q34 -57 73.5 -84t98.5 -27q67 0 109.5 49t42.5 138v476h52v-472q0 -118 -64 -182q-56 -56 -143 -56z" />
    <glyph glyph-name="afii10058" unicode="&#x409;" horiz-adv-x="1178" 
d="M84 -7q-44 0 -84 17l16 43q24 -12 67 -12q14 0 25.5 3t28 15.5t29.5 33.5t27 60.5t23 93.5t15 135.5t6 183.5v134h429v-281h207q109 0 182 -50t73 -151q0 -100 -68.5 -159t-181.5 -59h-264v652h-327v-88q0 -147 -12 -253.5t-30 -167t-46.5 -95.5t-54.5 -45t-60 -10z
M666 48h203q97 0 151 42.5t54 125.5q0 76 -55.5 115.5t-155.5 39.5h-197v-323z" />
    <glyph glyph-name="afii10059" unicode="&#x40a;" horiz-adv-x="1168" 
d="M104 0v700h52v-301h448v301h52v-301h217q107 0 176 -48t69 -143q0 -94 -64.5 -151t-175.5 -57h-274v351h-448v-351h-52zM656 48h213q95 0 145 40.5t50 117.5q0 70 -51.5 107.5t-149.5 37.5h-207v-303z" />
    <glyph glyph-name="afii10060" unicode="&#x40b;" horiz-adv-x="877" 
d="M268 0v652h-214v48h540v-48h-274v-295q112 89 242 89q105 0 168.5 -52t63.5 -149v-245h-52v250q0 67 -49 108t-128 41q-74 0 -131 -23.5t-114 -74.5v-301h-52z" />
    <glyph glyph-name="afii10061" unicode="&#x40c;" horiz-adv-x="715" 
d="M104 0v700h52v-460l446 460h71l-306 -309l319 -391h-68l-288 354l-174 -176v-178h-52zM303 765l88 133l61 -30l-107 -103h-42z" />
    <glyph glyph-name="afii10062" unicode="&#x40e;" horiz-adv-x="727" 
d="M202 -12q-60 0 -112 24l20 45q41 -20 92 -20q97 0 158 122l-316 541h61l281 -487l240 487h57l-278 -558q-77 -154 -203 -154zM386 763q-52 0 -89 32.5t-46 82.5l41 9q19 -73 94 -73t94 73l41 -9q-9 -50 -46 -82.5t-89 -32.5z" />
    <glyph glyph-name="afii10145" unicode="&#x40f;" horiz-adv-x="750" 
d="M353 -160v160h-249v700h52v-652h438v652h52v-700h-239v-160h-54z" />
    <glyph glyph-name="afii10017" unicode="&#x410;" horiz-adv-x="790" 
d="M44 0l326 705h50l326 -705h-57l-89 196h-413l-89 -196h-54zM209 243h369l-184 405z" />
    <glyph glyph-name="afii10018" unicode="&#x411;" horiz-adv-x="708" 
d="M104 0v700h488v-48h-436v-248h236q116 0 184.5 -48t68.5 -148t-64.5 -154t-180.5 -54h-296zM156 48h234q201 0 201 160q0 73 -53.5 110.5t-152.5 37.5h-229v-308z" />
    <glyph glyph-name="afii10019" unicode="&#x412;" horiz-adv-x="722" 
d="M104 0v700h289q103 0 165 -47.5t62 -126.5q0 -118 -119 -166q158 -41 158 -169q0 -87 -68.5 -139t-182.5 -52h-304zM156 48h254q90 0 143 39t53 106q0 65 -55 100.5t-158 35.5h-237v-281zM156 377h231q81 0 130.5 38t49.5 108q0 59 -46 94t-129 35h-236v-275z" />
    <glyph glyph-name="afii10020" unicode="&#x413;" horiz-adv-x="590" 
d="M104 0v700h437v-48h-385v-652h-52z" />
    <glyph glyph-name="afii10021" unicode="&#x414;" horiz-adv-x="751" 
d="M10 -160v208h75q54 75 83 207.5t29 296.5v148h429v-652h95l-10 -208h-44v160h-603l-10 -160h-44zM145 48h429v604h-326v-138q0 -142 -27.5 -269t-75.5 -197z" />
    <glyph glyph-name="afii10022" unicode="&#x415;" horiz-adv-x="670" 
d="M104 0v700h498v-48h-446v-275h401v-48h-401v-281h451v-48h-503z" />
    <glyph glyph-name="afii10024" unicode="&#x416;" horiz-adv-x="1072" 
d="M23 0l295 399l-275 301h66l401 -446v446h52v-446l401 446h66l-275 -301l295 -399h-65l-266 360l-156 -171v-189h-52v189l-157 171l-265 -360h-65z" />
    <glyph glyph-name="afii10025" unicode="&#x417;" horiz-adv-x="625" 
d="M325 -12q-160 0 -285 112l34 39q59 -54 118.5 -79t134.5 -25q78 0 129.5 41.5t51.5 108.5q0 68 -54.5 106.5t-152.5 38.5h-76v46h77q82 0 134.5 39.5t52.5 108.5q0 61 -49 100.5t-125 39.5q-115 0 -212 -79l-31 40q107 86 245 86q100 0 163 -52.5t63 -134.5
q0 -121 -133 -166q69 -20 110.5 -63.5t41.5 -110.5q0 -82 -67 -139t-170 -57z" />
    <glyph glyph-name="afii10026" unicode="&#x418;" horiz-adv-x="766" 
d="M104 0v700h52v-625l455 625h51v-700h-52v625l-454 -625h-52z" />
    <glyph glyph-name="afii10027" unicode="&#x419;" horiz-adv-x="766" 
d="M104 0v700h52v-625l455 625h51v-700h-52v625l-454 -625h-52zM384 758q-52 0 -89 32.5t-46 82.5l41 9q19 -73 94 -73t94 73l41 -9q-9 -50 -46 -82.5t-89 -32.5z" />
    <glyph glyph-name="afii10028" unicode="&#x41a;" horiz-adv-x="715" 
d="M104 0v700h52v-460l446 460h71l-306 -309l319 -391h-68l-288 354l-174 -176v-178h-52z" />
    <glyph glyph-name="afii10029" unicode="&#x41b;" horiz-adv-x="770" 
d="M84 -7q-44 0 -84 17l16 43q24 -12 67 -12q14 0 25.5 3t28 15.5t29.5 33.5t27 60.5t23 93.5t15 135.5t6 183.5v134h429v-700h-52v652h-327v-88q0 -147 -12 -253.5t-30 -167t-46.5 -95.5t-54.5 -45t-60 -10z" />
    <glyph glyph-name="afii10030" unicode="&#x41c;" horiz-adv-x="868" 
d="M104 0v700h49l281 -414l281 414h49v-700h-52v608l-277 -403h-4l-277 403v-608h-50z" />
    <glyph glyph-name="afii10031" unicode="&#x41d;" horiz-adv-x="760" 
d="M104 0v700h52v-324h448v324h52v-700h-52v328h-448v-328h-52z" />
    <glyph glyph-name="afii10032" unicode="&#x41e;" horiz-adv-x="850" 
d="M424 -12q-155 0 -253 106.5t-98 255.5q0 148 99 255t254 107t253 -106.5t98 -255.5q0 -148 -99 -255t-254 -107zM426 35q128 0 212.5 91t84.5 224q0 131 -85.5 223t-213.5 92t-212.5 -91t-84.5 -224q0 -131 85.5 -223t213.5 -92z" />
    <glyph glyph-name="afii10033" unicode="&#x41f;" horiz-adv-x="750" 
d="M104 0v700h542v-700h-52v652h-438v-652h-52z" />
    <glyph glyph-name="afii10034" unicode="&#x420;" horiz-adv-x="668" 
d="M104 0v700h254q117 0 188.5 -57.5t71.5 -158.5q0 -106 -78.5 -164.5t-194.5 -58.5h-189v-261h-52zM156 309h192q98 0 158 47.5t60 126.5q0 81 -57.5 125t-154.5 44h-198v-343z" />
    <glyph glyph-name="afii10035" unicode="&#x421;" horiz-adv-x="738" 
d="M421 -12q-149 0 -248.5 104.5t-99.5 257.5q0 150 100 256t250 106q86 0 146.5 -29t122.5 -86l-34 -35q-106 103 -236 103q-126 0 -210.5 -90.5t-84.5 -224.5q0 -133 85.5 -224t210.5 -91q73 0 129 27t112 82l35 -34q-61 -60 -126 -91t-152 -31z" />
    <glyph glyph-name="afii10036" unicode="&#x422;" horiz-adv-x="648" 
d="M298 0v652h-244v48h540v-48h-244v-652h-52z" />
    <glyph glyph-name="afii10037" unicode="&#x423;" horiz-adv-x="727" 
d="M202 -12q-60 0 -112 24l20 45q41 -20 92 -20q97 0 158 122l-316 541h61l281 -487l240 487h57l-278 -558q-77 -154 -203 -154z" />
    <glyph glyph-name="afii10038" unicode="&#x424;" horiz-adv-x="862" 
d="M405 -26v78h-33q-149 0 -235.5 85.5t-86.5 213.5t86.5 214t235.5 86h33v71h52v-71h33q149 0 235.5 -86t86.5 -214t-86.5 -213.5t-235.5 -85.5h-33v-78h-52zM372 99h33v505h-33q-127 -2 -197.5 -71t-70.5 -182q0 -112 70.5 -181t197.5 -71zM457 99h33q127 2 197.5 71
t70.5 181q0 113 -70.5 182t-197.5 71h-33v-505z" />
    <glyph glyph-name="afii10039" unicode="&#x425;" horiz-adv-x="722" 
d="M51 0l279 357l-269 343h62l239 -308l238 308h61l-268 -342l278 -358h-62l-249 323l-248 -323h-61z" />
    <glyph glyph-name="afii10040" unicode="&#x426;" horiz-adv-x="771" 
d="M687 -160v160h-583v700h52v-652h438v652h52v-652h95l-10 -208h-44z" />
    <glyph glyph-name="afii10041" unicode="&#x427;" horiz-adv-x="690" 
d="M534 0v312q-48 -26 -114 -49.5t-118 -23.5q-103 0 -162.5 51.5t-59.5 149.5v260h52v-265q0 -68 44.5 -108.5t122.5 -40.5q105 0 235 75v339h52v-700h-52z" />
    <glyph glyph-name="afii10042" unicode="&#x428;" horiz-adv-x="1100" 
d="M104 0v700h52v-652h368v652h52v-652h368v652h52v-700h-892z" />
    <glyph glyph-name="afii10043" unicode="&#x429;" horiz-adv-x="1121" 
d="M1037 -160v160h-933v700h52v-652h368v652h52v-652h368v652h52v-652h95l-10 -208h-44z" />
    <glyph glyph-name="afii10044" unicode="&#x42a;" horiz-adv-x="804" 
d="M240 0v652h-190v48h242v-281h207q109 0 182 -50t73 -151q0 -100 -68.5 -159t-181.5 -59h-264zM292 48h203q97 0 151 42.5t54 125.5q0 76 -55.5 115.5t-155.5 39.5h-197v-323z" />
    <glyph glyph-name="afii10045" unicode="&#x42b;" horiz-adv-x="870" 
d="M104 0v700h52v-281h207q109 0 182 -50t73 -151q0 -100 -68.5 -159t-181.5 -59h-264zM156 48h203q97 0 151 42.5t54 125.5q0 76 -55.5 115.5t-155.5 39.5h-197v-323zM714 0v700h52v-700h-52z" />
    <glyph glyph-name="afii10046" unicode="&#x42c;" horiz-adv-x="668" 
d="M104 0v700h52v-281h207q109 0 182 -50t73 -151q0 -100 -68.5 -159t-181.5 -59h-264zM156 48h203q97 0 151 42.5t54 125.5q0 76 -55.5 115.5t-155.5 39.5h-197v-323z" />
    <glyph glyph-name="afii10047" unicode="&#x42d;" horiz-adv-x="738" 
d="M317 -12q-160 0 -278 120l35 36q56 -55 112 -82t129 -27q120 0 203.5 84t91.5 210h-377v48h377q-9 124 -92 206t-202 82q-130 0 -236 -103l-33 36q62 57 122 85.5t146 28.5q150 0 250 -106t100 -258t-99.5 -256t-248.5 -104z" />
    <glyph glyph-name="afii10048" unicode="&#x42e;" horiz-adv-x="1038" 
d="M638 -12q-139 0 -228.5 96.5t-96.5 243.5h-157v-328h-52v700h52v-324h157q8 145 98.5 240.5t228.5 95.5q144 0 234.5 -103t90.5 -258t-91.5 -259t-235.5 -104zM640 35q119 0 195 89.5t76 225.5q0 134 -77.5 224.5t-195.5 90.5q-119 0 -195 -89.5t-76 -225.5
q0 -134 77.5 -224.5t195.5 -90.5z" />
    <glyph glyph-name="afii10049" unicode="&#x42f;" horiz-adv-x="723" 
d="M48 0l223 289q-91 12 -144 66t-53 141q0 88 68 146t182 58h294v-700h-52v280h-237l-215 -280h-66zM330 327h236v325h-239q-94 0 -147.5 -43.5t-53.5 -116.5q0 -75 57.5 -120t146.5 -45z" />
    <glyph glyph-name="afii10065" unicode="&#x430;" horiz-adv-x="574" 
d="M248 -12q-84 0 -140.5 42.5t-56.5 119.5q0 78 61 122t162 44q86 0 169 -22v22q0 76 -44 116t-124 40t-160 -41l-18 43q95 44 181 44q105 0 161 -56q52 -52 52 -144v-318h-48v85q-69 -97 -195 -97zM251 34q80 0 136.5 44.5t56.5 112.5v58q-90 23 -173 23
q-80 0 -123.5 -32.5t-43.5 -88.5q0 -55 40 -86t107 -31z" />
    <glyph glyph-name="afii10066" unicode="&#x431;" horiz-adv-x="642" 
d="M326 -12q-112 0 -184 77t-72 203q0 51 1.5 84.5t7 76.5t17.5 72.5t31.5 58.5t51 48.5t73.5 30.5l290 73l14 -44l-280 -74q-81 -21 -115.5 -66.5t-42.5 -135.5q72 120 221 120q101 0 173 -77t72 -183q0 -108 -74 -186t-184 -78zM328 34q87 0 145 63t58 153t-59.5 153
t-145.5 63q-87 0 -145 -63t-58 -153t59.5 -153t145.5 -63z" />
    <glyph glyph-name="afii10067" unicode="&#x432;" horiz-adv-x="580" 
d="M93 0v510h233q75 0 120 -34.5t45 -92.5q0 -81 -86 -117q51 -13 83 -45t32 -82q0 -63 -50 -101t-133 -38h-244zM142 44h189q64 0 101 27.5t37 74.5q0 45 -38.5 70t-111.5 25h-177v-197zM142 282h177q55 0 88.5 25.5t33.5 72.5q0 39 -31 62.5t-88 23.5h-180v-184z" />
    <glyph glyph-name="afii10068" unicode="&#x433;" horiz-adv-x="460" 
d="M93 0v510h337v-44h-288v-466h-49z" />
    <glyph glyph-name="afii10069" unicode="&#x434;" horiz-adv-x="610" 
d="M14 -144v188h67q75 123 75 358v108h342v-466h82l-10 -188h-40v144h-465l-10 -144h-41zM135 44h314v422h-246v-92q0 -100 -18.5 -189t-49.5 -141z" />
    <glyph glyph-name="afii10070" unicode="&#x435;" horiz-adv-x="584" 
d="M308 -12q-103 0 -176.5 75t-73.5 193q0 112 69.5 189t172.5 77q105 0 169.5 -76t64.5 -191q0 -12 -1 -20h-423q7 -92 64.5 -146.5t135.5 -54.5q100 0 175 80l34 -30q-89 -96 -211 -96zM110 279h371q-6 84 -53 141t-130 57q-75 0 -128 -56.5t-60 -141.5z" />
    <glyph glyph-name="afii10072" unicode="&#x436;" horiz-adv-x="835" 
d="M26 0l216 289l-203 221h62l292 -325v325h49v-325l292 325h62l-204 -221l217 -289h-60l-188 254l-119 -129v-125h-49v125l-119 130l-188 -255h-60z" />
    <glyph glyph-name="afii10073" unicode="&#x437;" 
d="M253 -10q-115 0 -208 76l30 40q82 -70 176 -70q54 0 96.5 30.5t42.5 74.5q0 45 -38 71.5t-104 26.5h-70v44h71q55 0 91 27t36 73q0 40 -35 65t-88 25q-93 0 -159 -52l-29 39q80 59 189 59q80 0 128 -38t48 -98q0 -84 -82 -118q95 -33 95 -125q0 -62 -53.5 -106
t-136.5 -44z" />
    <glyph glyph-name="afii10074" unicode="&#x438;" horiz-adv-x="630" 
d="M93 0v510h49v-445l346 445h49v-510h-49v445l-346 -445h-49z" />
    <glyph glyph-name="afii10075" unicode="&#x439;" horiz-adv-x="630" 
d="M93 0v510h49v-445l346 445h49v-510h-49v445l-346 -445h-49zM315 593q-52 0 -89 32.5t-46 82.5l41 9q19 -73 94 -73t94 73l41 -9q-9 -50 -46 -82.5t-89 -32.5z" />
    <glyph glyph-name="afii10076" unicode="&#x43a;" horiz-adv-x="556" 
d="M93 0v510h49v-327l316 327h65l-223 -226l230 -284h-62l-202 249l-124 -125v-124h-49z" />
    <glyph glyph-name="afii10077" unicode="&#x43b;" horiz-adv-x="610" 
d="M60 -8q-28 0 -56 8l9 45q25 -7 39 -7q20 0 32.5 4.5t27.5 18.5t24 44t17.5 78t12.5 123t4 177v27h347v-510h-49v466h-251v-14q0 -124 -8 -210t-20 -134.5t-34 -75t-42.5 -33.5t-52.5 -7z" />
    <glyph glyph-name="afii10078" unicode="&#x43c;" horiz-adv-x="690" 
d="M93 0v510h44l208 -293l208 293h44v-510h-49v425l-205 -282l-203 282v-425h-47z" />
    <glyph glyph-name="afii10079" unicode="&#x43d;" horiz-adv-x="623" 
d="M93 0v510h49v-227h339v227h49v-510h-49v239h-339v-239h-49z" />
    <glyph glyph-name="afii10080" unicode="&#x43e;" horiz-adv-x="640" 
d="M319 -12q-112 0 -186.5 78.5t-74.5 188.5q0 109 75.5 188t187.5 79t186.5 -78.5t74.5 -188.5q0 -109 -75.5 -188t-187.5 -79zM321 34q85 0 146.5 65t61.5 156q0 92 -61.5 156.5t-148.5 64.5q-86 0 -147 -64.5t-61 -156.5t61 -156.5t149 -64.5z" />
    <glyph glyph-name="afii10081" unicode="&#x43f;" horiz-adv-x="610" 
d="M93 0v510h424v-510h-49v466h-326v-466h-49z" />
    <glyph glyph-name="afii10082" unicode="&#x440;" horiz-adv-x="660" 
d="M93 -160v670h49v-114q83 126 210 126q98 0 173 -73.5t75 -193.5q0 -119 -75 -193t-173 -74q-130 0 -210 122v-270h-49zM347 35q86 0 143 59.5t57 160.5q0 98 -58.5 159t-141.5 61t-145.5 -62.5t-62.5 -158.5q0 -95 62.5 -157t145.5 -62z" />
    <glyph glyph-name="afii10083" unicode="&#x441;" horiz-adv-x="571" 
d="M318 -12q-110 0 -185 78t-75 189q0 110 75.5 188.5t184.5 78.5q119 0 203 -95l-34 -35q-82 84 -170 84q-85 0 -145.5 -65t-60.5 -156q0 -92 61 -156.5t149 -64.5q91 0 169 87l36 -32q-89 -101 -208 -101z" />
    <glyph glyph-name="afii10084" unicode="&#x442;" horiz-adv-x="491" 
d="M221 0v466h-191v44h431v-44h-191v-466h-49z" />
    <glyph glyph-name="afii10085" unicode="&#x443;" horiz-adv-x="588" 
d="M155 -163q-51 0 -101 22l17 43q39 -19 87 -19q40 0 69 27t57 93l-245 507h57l212 -456l184 456h54l-221 -528q-33 -78 -73.5 -111.5t-96.5 -33.5z" />
    <glyph glyph-name="afii10086" unicode="&#x444;" horiz-adv-x="855" 
d="M403 -160v206q-67 -58 -135 -58q-94 0 -151 72.5t-57 196.5q0 123 57 194t151 71q70 0 135 -60v238h49v-238q31 29 61.5 44.5t73.5 15.5q94 0 151 -71.5t57 -195.5q0 -123 -57.5 -195t-150.5 -72q-46 0 -74 14t-61 44v-206h-49zM273 35q74 0 130 61v318q-56 61 -130 61
q-79 0 -119.5 -59t-40.5 -163q0 -218 160 -218zM582 35q160 0 160 220q0 103 -40.5 161.5t-119.5 58.5q-74 0 -130 -61v-318q56 -61 130 -61z" />
    <glyph glyph-name="afii10087" unicode="&#x445;" horiz-adv-x="570" 
d="M45 0l209 260l-201 250h61l172 -216l172 216h59l-201 -249l209 -261h-61l-180 227l-180 -227h-59z" />
    <glyph glyph-name="afii10088" unicode="&#x446;" horiz-adv-x="629" 
d="M549 -144v144h-456v510h49v-466h326v466h49v-466h82l-10 -188h-40z" />
    <glyph glyph-name="afii10089" unicode="&#x447;" horiz-adv-x="560" 
d="M418 0v223q-35 -20 -86 -36t-97 -16q-77 0 -121.5 38t-44.5 110v191h49v-192q0 -47 30.5 -74.5t84.5 -27.5q46 0 97.5 15.5t87.5 40.5v238h49v-510h-49z" />
    <glyph glyph-name="afii10090" unicode="&#x448;" horiz-adv-x="897" 
d="M93 0v510h49v-466h282v466h49v-466h282v466h49v-510h-711z" />
    <glyph glyph-name="afii10091" unicode="&#x449;" horiz-adv-x="916" 
d="M836 -144v144h-743v510h49v-466h282v466h49v-466h282v466h49v-466h82l-10 -188h-40z" />
    <glyph glyph-name="afii10092" unicode="&#x44a;" horiz-adv-x="619" 
d="M183 0v466h-163v44h212v-196h152q85 0 140 -37.5t55 -112.5q0 -74 -51 -119t-135 -45h-210zM232 44h153q65 0 103 31t38 87q0 51 -39 79.5t-106 28.5h-149v-226z" />
    <glyph glyph-name="afii10093" unicode="&#x44b;" horiz-adv-x="733" 
d="M93 0v510h49v-196h152q85 0 140 -37.5t55 -112.5q0 -74 -51 -119t-135 -45h-210zM142 44h153q65 0 103 31t38 87q0 51 -39 79.5t-106 28.5h-149v-226zM591 0v510h49v-510h-49z" />
    <glyph glyph-name="afii10094" unicode="&#x44c;" horiz-adv-x="529" 
d="M93 0v510h49v-196h152q85 0 140 -37.5t55 -112.5q0 -74 -51 -119t-135 -45h-210zM142 44h153q65 0 103 31t38 87q0 51 -39 79.5t-106 28.5h-149v-226z" />
    <glyph glyph-name="afii10095" unicode="&#x44d;" horiz-adv-x="571" 
d="M253 -12q-125 0 -208 101l36 31q77 -86 169 -86q83 0 143 58.5t66 146.5h-268v44h267q-9 82 -68 137.5t-136 55.5q-91 0 -170 -84l-33 34q43 45 90 70.5t112 25.5q111 0 185.5 -79t74.5 -190q0 -108 -75.5 -186.5t-184.5 -78.5z" />
    <glyph glyph-name="afii10096" unicode="&#x44e;" horiz-adv-x="820" 
d="M514 -12q-106 0 -172.5 70t-73.5 176h-126v-234h-49v510h49v-231h126q8 103 75.5 173t172.5 70q110 0 178 -77.5t68 -189.5q0 -111 -68.5 -189t-179.5 -78zM516 34q88 0 140.5 63t52.5 158q0 94 -54 157.5t-141 63.5q-88 0 -140.5 -63t-52.5 -158q0 -94 54 -157.5
t141 -63.5z" />
    <glyph glyph-name="afii10097" unicode="&#x44f;" horiz-adv-x="574" 
d="M52 0l161 203q-64 12 -105.5 53t-41.5 102q0 68 50 110t137 42h228v-510h-49v196h-168l-152 -196h-60zM262 240h170v226h-172q-66 0 -103.5 -30t-37.5 -81q0 -52 40 -83.5t103 -31.5z" />
    <glyph glyph-name="afii10071" unicode="&#x451;" horiz-adv-x="584" 
d="M308 -12q-103 0 -176.5 75t-73.5 193q0 112 69.5 189t172.5 77q105 0 169.5 -76t64.5 -191q0 -12 -1 -20h-423q7 -92 64.5 -146.5t135.5 -54.5q100 0 175 80l34 -30q-89 -96 -211 -96zM110 279h371q-6 84 -53 141t-130 57q-75 0 -128 -56.5t-60 -141.5zM181 595v80h69
v-80h-69zM344 595v80h69v-80h-69z" />
    <glyph glyph-name="afii10099" unicode="&#x452;" horiz-adv-x="613" 
d="M326 -12q-51 0 -101 22l17 43q39 -19 87 -19q66 0 109 47.5t43 125.5v96q0 80 -43 127t-119 47t-126.5 -51.5t-50.5 -130.5v-295h-49v580h-83v45h83v105h49v-105h229v-45h-229v-165q61 107 184 107q95 0 149.5 -58.5t54.5 -151.5v-114q0 -93 -54.5 -151.5t-149.5 -58.5z
" />
    <glyph glyph-name="afii10100" unicode="&#x453;" horiz-adv-x="460" 
d="M93 0v510h337v-44h-288v-466h-49zM206 595l88 133l61 -30l-107 -103h-42z" />
    <glyph glyph-name="afii10101" unicode="&#x454;" horiz-adv-x="571" 
d="M318 -12q-109 0 -184.5 78.5t-75.5 186.5q0 111 74.5 190t185.5 79q65 0 112 -25.5t90 -70.5l-33 -34q-79 84 -170 84q-77 0 -136 -55.5t-69 -137.5h268v-44h-269q7 -88 66.5 -146.5t143.5 -58.5q92 0 169 86l36 -31q-83 -101 -208 -101z" />
    <glyph glyph-name="afii10102" unicode="&#x455;" horiz-adv-x="497" 
d="M258 -10q-55 0 -111.5 20.5t-97.5 53.5l29 39q87 -67 183 -67q53 0 88 27t35 72q0 41 -34.5 62t-100.5 40q-35 10 -51 15t-45 18t-42.5 26t-25 34.5t-11.5 48.5q0 62 47 101.5t121 39.5q97 0 181 -56l-26 -41q-77 51 -157 51q-52 0 -84 -25.5t-32 -65.5q0 -16 8.5 -30
t20 -23t33 -18.5t37 -14.5t43.5 -13q38 -11 62 -20t51.5 -26t41 -41.5t13.5 -57.5q0 -67 -50.5 -108t-125.5 -41z" />
    <glyph glyph-name="afii10103" unicode="&#x456;" horiz-adv-x="249" 
d="M100 0v510h49v-510h-49zM94 643v67h61v-67h-61z" />
    <glyph glyph-name="afii10104" unicode="&#x457;" horiz-adv-x="249" 
d="M9 595v80h69v-80h-69zM172 595v80h69v-80h-69zM100 0v510h49v-510h-49z" />
    <glyph glyph-name="afii10105" unicode="&#x458;" horiz-adv-x="249" 
d="M40 -163q-21 0 -41 4v43q18 -3 40 -3q28 0 44.5 18t16.5 53v558h49v-555q0 -58 -29 -88t-80 -30zM94 643v67h61v-67h-61z" />
    <glyph glyph-name="afii10106" unicode="&#x459;" horiz-adv-x="904" 
d="M60 -8q-28 0 -56 8l9 45q25 -7 39 -7q20 0 32.5 4.5t27.5 18.5t24 44t17.5 78t12.5 123t4 177v27h347v-196h152q85 0 140 -37.5t55 -112.5q0 -74 -51 -119t-135 -45h-210v466h-251v-14q0 -124 -8 -210t-20 -134.5t-34 -75t-42.5 -33.5t-52.5 -7zM517 44h153q65 0 103 31
t38 87q0 51 -39 79.5t-106 28.5h-149v-226z" />
    <glyph glyph-name="afii10107" unicode="&#x45a;" horiz-adv-x="917" 
d="M93 0v510h49v-210h339v210h49v-210h152q87 0 141 -34.5t54 -108.5q0 -73 -50.5 -115t-135.5 -42h-210v256h-339v-256h-49zM530 44h153q66 0 103.5 28t37.5 83q0 50 -38 75.5t-107 25.5h-149v-212z" />
    <glyph glyph-name="afii10108" unicode="&#x45b;" horiz-adv-x="613" 
d="M93 0v580h-83v45h83v105h49v-105h229v-45h-229v-165q61 107 184 107q95 0 149.5 -58.5t54.5 -151.5v-312h-49v303q0 80 -43 127t-119 47t-126.5 -51.5t-50.5 -130.5v-295h-49z" />
    <glyph glyph-name="afii10109" unicode="&#x45c;" horiz-adv-x="556" 
d="M93 0v510h49v-327l316 327h65l-223 -226l230 -284h-62l-202 249l-124 -125v-124h-49zM223 595l88 133l61 -30l-107 -103h-42z" />
    <glyph glyph-name="afii10110" unicode="&#x45e;" horiz-adv-x="588" 
d="M155 -163q-51 0 -101 22l17 43q39 -19 87 -19q40 0 69 27t57 93l-245 507h57l212 -456l184 456h54l-221 -528q-33 -78 -73.5 -111.5t-96.5 -33.5zM308 593q-52 0 -89 32.5t-46 82.5l41 9q19 -73 94 -73t94 73l41 -9q-9 -50 -46 -82.5t-89 -32.5z" />
    <glyph glyph-name="afii10193" unicode="&#x45f;" horiz-adv-x="616" 
d="M284 -144v144h-191v510h49v-465h326v465h49v-510h-183v-144h-50z" />
    <glyph glyph-name="afii10050" unicode="&#x490;" horiz-adv-x="590" 
d="M104 0v700h383v160h44l10 -208h-385v-652h-52z" />
    <glyph glyph-name="afii10098" unicode="&#x491;" horiz-adv-x="460" 
d="M93 0v510h287v144h40l10 -188h-288v-466h-49z" />
    <glyph glyph-name="endash" unicode="&#x2013;" horiz-adv-x="528" 
d="M70 271v52h388v-52h-388z" />
    <glyph glyph-name="emdash" unicode="&#x2014;" horiz-adv-x="898" 
d="M70 271v52h758v-52h-758z" />
    <glyph glyph-name="quoteleft" unicode="&#x2018;" horiz-adv-x="230" 
d="M77 513v74q0 47 19 74t64 44l12 -25q-56 -28 -56 -73v-9h27v-85h-66z" />
    <glyph glyph-name="quoteright" unicode="&#x2019;" horiz-adv-x="230" 
d="M70 508l-12 25q56 28 56 73v9h-27v85h66v-74q0 -47 -19 -74t-64 -44z" />
    <glyph glyph-name="quotesinglbase" unicode="&#x201a;" horiz-adv-x="230" 
d="M65 -107l-12 25q56 28 56 73v9h-27v85h66v-74q0 -47 -19 -74t-64 -44z" />
    <glyph glyph-name="quotedblleft" unicode="&#x201c;" horiz-adv-x="410" 
d="M77 513v74q0 47 19 74t64 44l12 -25q-56 -28 -56 -73v-9h27v-85h-66zM257 513v74q0 47 19 74t64 44l12 -25q-56 -28 -56 -73v-9h27v-85h-66z" />
    <glyph glyph-name="quotedblright" unicode="&#x201d;" horiz-adv-x="410" 
d="M70 508l-12 25q56 28 56 73v9h-27v85h66v-74q0 -47 -19 -74t-64 -44zM250 508l-12 25q56 28 56 73v9h-27v85h66v-74q0 -47 -19 -74t-64 -44z" />
    <glyph glyph-name="quotedblbase" unicode="&#x201e;" horiz-adv-x="410" 
d="M65 -107l-12 25q56 28 56 73v9h-27v85h66v-74q0 -47 -19 -74t-64 -44zM245 -107l-12 25q56 28 56 73v9h-27v85h66v-74q0 -47 -19 -74t-64 -44z" />
    <glyph glyph-name="dagger" unicode="&#x2020;" horiz-adv-x="410" 
d="M183 238l5 286l-125 -7v45l124 -7l-7 145h50l-7 -145l124 7v-45l-125 7l5 -286h-44z" />
    <glyph glyph-name="daggerdbl" unicode="&#x2021;" horiz-adv-x="430" 
d="M190 0l7 145l-124 -7v45l125 -7l-5 174l5 174l-125 -7v45l124 -7l-7 145h50l-7 -145l124 7v-45l-125 7l5 -174l-5 -174l125 7v-45l-124 7l7 -145h-50z" />
    <glyph glyph-name="bullet" unicode="&#x2022;" horiz-adv-x="470" 
d="M235 228q-51 0 -87.5 36.5t-36.5 88.5q0 50 37.5 86.5t86.5 36.5t86.5 -36.5t37.5 -88.5q0 -51 -36.5 -87t-87.5 -36z" />
    <glyph glyph-name="ellipsis" unicode="&#x2026;" horiz-adv-x="680" 
d="M82 0v83h64v-83h-64zM308 0v83h64v-83h-64zM534 0v83h64v-83h-64z" />
    <glyph glyph-name="perthousand" unicode="&#x2030;" horiz-adv-x="1200" 
d="M128 0l514 700h54l-514 -700h-54zM614 -8q-67 0 -110 52.5t-43 126.5q0 73 43.5 126t111.5 53q67 0 110 -53t43 -126t-43.5 -126t-111.5 -53zM616 35q44 0 72.5 39t28.5 97t-30 97t-73 39q-44 0 -72.5 -39.5t-28.5 -96.5q0 -58 30 -97t73 -39zM990 -8q-67 0 -110 52.5
t-43 126.5q0 73 43.5 126t111.5 53q67 0 110 -53t43 -126t-43.5 -126t-111.5 -53zM992 35q44 0 72.5 39t28.5 97t-30 97t-73 39q-44 0 -72.5 -39.5t-28.5 -96.5q0 -58 30 -97t73 -39zM208 350q-67 0 -110 52.5t-43 126.5q0 73 43.5 126t111.5 53q67 0 110 -53t43 -126
t-43.5 -126t-111.5 -53zM210 393q44 0 72.5 39t28.5 97t-30 97t-73 39q-44 0 -72.5 -39.5t-28.5 -96.5q0 -58 30 -97t73 -39z" />
    <glyph glyph-name="guilsinglleft" unicode="&#x2039;" horiz-adv-x="311" 
d="M211 42l-160 209v8l160 209l37 -24l-137 -188l137 -190z" />
    <glyph glyph-name="guilsinglright" unicode="&#x203a;" horiz-adv-x="311" 
d="M100 42l-37 24l137 188l-137 190l37 24l160 -209v-8z" />
    <glyph glyph-name="fraction" unicode="&#x2044;" horiz-adv-x="410" 
d="M-67 -98l468 856h54l-468 -856h-54z" />
    <glyph glyph-name="Euro" unicode="&#x20ac;" horiz-adv-x="720" 
d="M428 -12q-102 0 -177.5 70.5t-101.5 186.5h-90v48h83q-3 27 -3 57q0 34 5 66h-85v48h94q28 110 100.5 179t167.5 69q147 0 240 -140l-40 -27q-43 63 -88.5 92t-113.5 29q-74 0 -132 -56t-83 -146h284v-48h-293q-5 -30 -5 -66q0 -28 3 -57h295v-48h-286q24 -95 85 -153
t144 -58q111 0 194 128l38 -25q-97 -149 -235 -149z" />
    <glyph glyph-name="afii61352" unicode="&#x2116;" horiz-adv-x="953" 
d="M65 0v700h59l403 -609v609h50v-700h-49l-413 622v-622h-50zM664 174v40h238v-40h-238zM783 292q-55 0 -92 38.5t-37 93.5q0 54 37.5 93t92.5 39t92 -38.5t37 -93.5q0 -54 -37.5 -93t-92.5 -39zM784 331q38 0 62 26.5t24 66.5q0 39 -25 66t-62 27q-38 0 -62 -26.5
t-24 -66.5q0 -39 25 -66t62 -27z" />
    <glyph glyph-name="published" unicode="&#x2117;" horiz-adv-x="830" 
d="M414 -12q-151 0 -256 106t-105 256q0 149 106 255.5t257 106.5t256 -106t105 -256q0 -149 -106 -255.5t-257 -106.5zM414 16q141 0 237 98t96 238q0 138 -95 235t-236 97t-237 -98t-96 -238q0 -138 95 -235t236 -97zM296 175v366h141q66 0 104.5 -30.5t38.5 -86.5
q0 -58 -43 -89.5t-107 -31.5h-90v-128h-44zM340 344h91q48 0 76 21t28 59q0 76 -101 76h-94v-156z" />
    <glyph glyph-name="trademark" unicode="&#x2122;" horiz-adv-x="690" 
d="M127 392v274h-101v34h237v-34h-101v-274h-35zM333 392v308h37l120 -183l120 183h36v-308h-35v246l-119 -178h-5l-119 178v-246h-35z" />
    <glyph glyph-name="partialdiff" unicode="&#x2202;" 
d="M0 0v700h500v-700h-500zM81 49h339l-170 255zM49 96l171 254l-171 254v-508zM450 96v508l-171 -254zM250 395l170 255h-339z" />
    <glyph glyph-name="Delta" unicode="&#x2206;" horiz-adv-x="790" 
d="M54 0l316 705h50l316 -705h-682zM129 48h529l-264 600z" />
    <glyph glyph-name="product" unicode="&#x220f;" 
d="M0 0v700h500v-700h-500zM81 49h339l-170 255zM49 96l171 254l-171 254v-508zM450 96v508l-171 -254zM250 395l170 255h-339z" />
    <glyph glyph-name="summation" unicode="&#x2211;" 
d="M0 0v700h500v-700h-500zM81 49h339l-170 255zM49 96l171 254l-171 254v-508zM450 96v508l-171 -254zM250 395l170 255h-339z" />
    <glyph glyph-name="minus" unicode="&#x2212;" horiz-adv-x="640" 
d="M93 328v51h454v-51h-454z" />
    <glyph glyph-name="radical" unicode="&#x221a;" horiz-adv-x="481" 
d="M490 786l-210 -1000h-55l-168 346l-45 -22l-19 40l88 43l166 -346l194 939h49z" />
    <glyph glyph-name="infinity" unicode="&#x221e;" horiz-adv-x="722" 
d="M172 217q-59 0 -95.5 39t-36.5 98t36 100t94 41q16 0 31.5 -3t31.5 -11.5t27.5 -14.5t28.5 -19.5t24.5 -20t25.5 -23t23 -20.5q11 9 40 36t44.5 39t44 24.5t56.5 12.5q59 0 97 -40.5t38 -100.5q0 -61 -35.5 -99t-96.5 -38q-35 0 -72 18t-60 36.5t-56 50.5
q-5 -4 -32.5 -27.5t-38 -31t-33.5 -22t-43 -19.5t-43 -5zM173 265q61 0 155 89q-7 6 -33 27t-41 32.5t-39.5 22.5t-44.5 11q-37 0 -59.5 -27.5t-22.5 -65.5q0 -40 23 -64.5t62 -24.5zM552 265q38 0 60 25.5t22 63.5q0 41 -22 67t-63 26q-56 0 -154 -93q2 -2 18.5 -16.5
t21.5 -18.5t20 -15.5t23.5 -16t22 -11t26 -9t25.5 -2.5z" />
    <glyph glyph-name="integral" unicode="&#x222b;" 
d="M0 0v700h500v-700h-500zM81 49h339l-170 255zM49 96l171 254l-171 254v-508zM450 96v508l-171 -254zM250 395l170 255h-339z" />
    <glyph glyph-name="approxequal" unicode="&#x2248;" horiz-adv-x="640" 
d="M581 500q-6 -55 -35.5 -92t-82.5 -37q-46 0 -146.5 37t-136.5 37q-34 0 -56 -24t-27 -59h-38q22 131 118 131q45 0 145.5 -37t138.5 -37q35 0 55.5 22.5t27.5 58.5h37zM581 339q-6 -54 -36 -91.5t-82 -37.5q-47 0 -146.5 37t-136.5 37q-34 0 -56 -24t-27 -59h-38
q22 131 118 131q46 0 146 -37t138 -37q35 0 55.5 22.5t27.5 58.5h37z" />
    <glyph glyph-name="notequal" unicode="&#x2260;" horiz-adv-x="640" 
d="M93 439v51h269l67 124l42 -22l-55 -102h131v-51h-158l-93 -174h251v-51h-279l-62 -117l-42 23l50 94h-121v51h149l93 174h-242z" />
    <glyph glyph-name="lessequal" unicode="&#x2264;" horiz-adv-x="640" 
d="M569 97l-497 193v54l497 193v-54l-431 -166l431 -166v-54zM569 5h-497v48h497v-48z" />
    <glyph glyph-name="greaterequal" unicode="&#x2265;" horiz-adv-x="640" 
d="M568 290l-497 -193v54l430 166l-430 166v54l497 -193v-54zM568 5h-497v48h497v-48z" />
    <glyph glyph-name="lozenge" unicode="&#x25ca;" horiz-adv-x="640" 
d="M515 356l-169 -391h-53l-167 391l167 391h53zM462 356l-142 335l-140 -335l140 -335z" />
    <glyph glyph-name="cyrBreve" unicode="&#xf6d1;" 
d="M250 593q-52 0 -89 32.5t-46 82.5l41 9q19 -73 94 -73t94 73l41 -9q-9 -50 -46 -82.5t-89 -32.5z" />
    <glyph glyph-name="cyrbreve" unicode="&#xf6d4;" 
d="M250 593q-52 0 -89 32.5t-46 82.5l41 9q19 -73 94 -73t94 73l41 -9q-9 -50 -46 -82.5t-89 -32.5z" />
    <glyph glyph-name="apple" unicode="&#xf8ff;" 
d="M0 0v700h500v-700h-500zM81 49h339l-170 255zM49 96l171 254l-171 254v-508zM450 96v508l-171 -254zM250 395l170 255h-339z" />
    <glyph glyph-name="ff" unicode="&#xfb00;" horiz-adv-x="724" 
d="M123 0v465h-74v45h74v50q0 88 45 133q40 40 107 40q41 0 76 -12v-46q-42 13 -76 13q-103 0 -103 -129v-49h178v-45h-178v-465h-49zM485 0v465h-74v45h74v50q0 88 45 133q40 40 107 40q41 0 76 -12v-46q-42 13 -76 13q-103 0 -103 -129v-49h178v-45h-178v-465h-49z" />
    <glyph glyph-name="nbspace" horiz-adv-x="300" 
 />
    </font>
</defs>
</svg>
